<svg width="976" height="388" viewBox="0 0 976 388" fill="none" xmlns="http://www.w3.org/2000/svg">
<path d="M976 387.588H936.738C936.466 386.854 936.331 386.046 935.893 385.417C930.385 377.305 924.923 369.162 919.28 361.139C914.919 354.912 910.332 348.85 906.288 343.342C904.025 345.318 902.153 347.339 899.92 348.82C894.82 352.188 892.044 350.856 890.761 344.854C890.218 342.324 889.328 339.87 888.603 337.385C888.286 337.445 887.97 337.52 887.653 337.579C887.653 338.403 887.607 339.226 887.653 340.049C888.03 346.53 886.415 349.24 880.199 351.485C876.924 352.667 873.499 353.461 870.074 354.149C868.082 354.553 867.086 355.391 866.558 357.367C864.702 364.297 862.74 371.198 860.688 378.068C859.964 380.478 859.104 382.933 857.821 385.073C857.444 385.702 856.463 387.213 855.513 387.588H762.805C762.624 385.013 762.91 382.319 762.216 379.909C759.681 371.198 756.89 362.576 754.008 353.984C753.63 352.862 752.378 351.829 751.261 351.17C745.844 347.952 740.503 344.585 737.062 339.151C733.698 333.852 730.65 328.359 727.632 323.225C727.586 323.285 727.556 323.33 727.526 323.39C721.008 334.78 714.504 346.171 707.955 357.562C705.602 361.663 703.308 365.6 704.606 370.808C705.601 374.82 706.567 383.426 706.794 387.588H78.5242C83.0812 376.511 84.7862 364.866 85.8123 352.862C77.2115 364.612 68.8068 376.107 60.4021 387.588H0C0.724282 385.776 1.16187 383.786 2.21811 382.199C8.43486 372.919 15.1496 363.923 21.0494 354.448C29.9973 340.079 38.5529 325.47 46.9878 310.802C51.5296 302.929 55.5132 294.741 59.6476 286.643C65.8644 274.474 72.7752 262.769 81.5873 252.232C87.0647 245.691 94.2321 243.805 102.441 243.775C108.854 243.745 115.282 243.101 121.71 242.637C123.716 242.488 124.969 241.784 125.195 239.165C125.512 235.318 128.47 233.327 132.106 232.429C134.143 231.92 135.577 231.711 134.837 228.582C133.539 223.209 138.111 219.272 145.037 219.048C145.339 219.033 145.716 219.302 145.913 219.183C148.161 217.94 150.952 221.458 152.839 218.554C154.212 216.428 155.162 214.019 156.083 212.163C153.729 211.743 151.465 210.95 149.217 211.055C147.286 211.13 145.43 212.447 143.468 212.821C139.877 213.48 136.24 214.243 132.634 214.183C130.914 214.168 128.575 212.746 127.715 211.279C127.096 210.217 128.122 207.837 128.967 206.355C130.325 203.975 132 201.715 133.781 199.619C135.999 197.03 134.732 196.356 132.151 195.997C121.891 194.575 113.939 189.366 109.804 180.086C107.284 174.428 104.055 170.881 98.442 168.112C92.3309 165.088 87.5023 159.999 85.2389 153.099C83.2622 147.082 84.7259 141.454 86.8987 135.871C87.1854 135.137 87.4269 134.404 87.7287 133.685C88.3624 132.203 89.0263 130.737 89.6751 129.27C87.5476 129.21 85.4049 128.911 83.3075 129.15C76.3816 129.973 73.1525 135.227 70.2403 140.571C68.9879 142.861 68.5804 145.585 67.494 147.98C67.0866 148.878 65.8342 149.402 64.9741 150.105C64.28 148.878 63.0125 147.665 62.9823 146.438C62.756 138.146 71.3116 126.261 79.3089 123.821C81.7081 123.088 84.3788 123.253 87.6532 122.938C81.9495 121.067 77.1209 118.193 71.3418 120.783C70.4062 121.202 69.0331 120.648 67.8713 120.543C68.2032 119.406 68.2636 117.505 68.9124 117.265C72.1113 116.128 75.4611 114.856 78.7808 114.766C81.7231 114.691 84.7108 116.098 87.6834 116.831C88.1964 116.966 88.7396 117.086 89.2677 117.206C89.2225 116.652 89.2828 116.068 89.132 115.529C87.5928 109.737 86.5819 103.869 89.0716 98.1363C92.9495 89.2004 99.1059 82.1355 107.314 76.7021C116.247 70.8047 125.859 66.494 135.818 62.6322C139.62 61.1653 142.729 57.8125 145.973 55.1033C152.144 49.9543 158.059 44.4761 164.352 39.4618C173.345 32.2771 185.416 32.6513 194.787 38.5038C197.91 40.4496 202.844 40.1802 206.873 39.9407C211.611 39.6563 216.289 38.3242 220.966 37.3662C224.045 36.7376 226.172 38.414 226.051 41.5273C225.795 48.7718 221.857 54.4447 217.964 60.1625C217.707 60.5367 217.662 61.5246 217.918 61.7341C234.637 75.0706 243.54 92.8975 247.719 113.299C249.591 122.459 251.386 131.68 252.322 140.975C253.423 151.871 254.495 162.858 252.623 173.815C251.039 183.155 247.267 191.297 240.869 198.572C234.652 205.637 226.398 208.915 218.145 212.013C213.739 213.674 212.471 216.533 211.581 220.185C210.721 223.823 210.042 227.505 209.619 231.202C209.483 232.295 210.464 233.507 210.932 234.659C211.913 234.136 213.256 233.851 213.814 233.043C219.88 224.092 228.375 218.374 238.56 215.246C246.709 212.746 255.023 210.741 263.352 208.9C267.954 207.882 272.753 207.792 277.43 207.044C287.812 205.382 297.921 202.688 306.688 196.761C309.163 195.084 310.34 191.567 312.271 189.007C319.755 179.098 319.982 167.618 320.344 155.913C320.54 149.821 316.225 147.097 313.539 143.04C312.316 141.229 310.913 139.523 309.962 137.577C308.936 135.482 307.88 134.853 305.677 136.08C300.411 139.014 294.888 137.921 289.788 135.916C284.869 133.985 279.965 131.56 275.74 128.432C272.888 126.321 270.655 122.878 269.161 119.571C265.238 110.949 264.197 101.803 265.811 92.4185C266.581 87.9431 269.267 84.6951 272.843 82.1954C274.322 81.1626 274.654 80.3843 273.794 78.8426C273.039 77.4655 272.798 75.7292 271.862 74.5318C268.528 70.2809 269.403 65.6109 269.886 60.8361C271.213 47.7989 279.829 39.2073 289.154 31.8131C298.389 24.4788 308.499 17.8779 319.076 12.6391C328.401 7.99901 338.994 5.93342 348.847 2.2513C357.856 -1.13147 366.728 -0.413004 375.465 2.49079C383.417 5.14012 389.694 10.4388 394.824 17.0247C400.86 24.7931 405.96 33.1303 409.355 42.3506C411.075 47.0356 412.252 51.9301 413.429 56.7797C415.904 66.8981 418.529 77.0015 420.506 87.2246C422.422 97.1334 423.916 107.147 425.033 117.176C426.602 131.29 420.627 142.651 410.276 151.737C405.462 155.988 399.743 159.221 394.462 162.948C393.874 163.352 392.998 163.936 392.968 164.475C392.651 170.731 392.666 177.003 392.214 183.229C391.731 189.815 395.337 193.872 400.558 196.521C406.367 199.485 412.373 202.388 418.62 204.11C425.938 206.13 433.664 206.624 441.118 208.196C447.968 209.633 454.728 211.579 461.473 213.435C468.354 215.336 472.881 220.081 476.185 226.053C478.358 230.004 480.244 234.106 482.342 238.327C482.643 236.351 483.368 234.27 483.156 232.28C482.885 229.705 483.866 228.074 485.722 226.667C496.782 218.344 507.933 210.112 521.332 205.801C525.421 204.484 523.958 201.55 524.274 199.051C524.606 196.416 522.6 196.356 520.804 196.027C512.173 194.47 503.844 192.046 496.193 187.63C491.471 184.906 490.143 180.101 488.151 175.641C483.685 165.642 483.488 154.925 482.538 144.268C481.24 129.554 480.078 114.871 481.693 100.112C482.417 93.3765 483.503 86.6709 484.047 79.9203C484.213 77.8248 482.99 75.6544 482.658 73.484C481.225 63.8746 483.85 55.3129 489.584 47.5744C493.794 41.9015 498.246 36.3933 502.184 30.5408C504.327 27.3975 505.775 23.7454 507.299 20.2279C511.041 11.5614 518.752 8.40314 526.991 5.91845C534.309 3.71815 541.687 3.29906 548.825 6.23279C551.827 7.47513 554.377 9.8251 557.124 11.6961C557.818 12.1751 558.421 13.133 559.146 13.2228C573.179 15.034 586.94 18.2072 600.369 22.5329C607.763 24.9278 614.78 28.4603 622.037 31.2743C623.26 31.7383 625.086 31.5287 626.323 30.9599C635.889 26.6342 645.577 23.2814 656.199 26.9186C657.633 27.4125 658.961 28.4752 660.062 29.5529C660.47 29.9421 660.349 31.2742 659.987 31.8879C659.76 32.2621 658.448 32.4118 657.905 32.1274C649.847 27.9513 642.136 30.5408 634.335 33.5793C637.579 34.0134 640.839 34.4175 644.083 34.8815C645.26 35.0462 646.497 35.2258 647.568 35.7048C648.368 36.064 648.957 36.9172 649.636 37.5309C648.579 37.8901 647.508 38.6086 646.467 38.5487C643.011 38.3541 639.556 37.8452 636.101 37.5309C635.422 37.471 634.697 37.8153 634.003 37.9799C634.501 38.5188 634.924 39.1624 635.512 39.5815C641.85 44.2964 647.146 49.9094 650.601 57.0342C654.117 64.3386 653.861 72.107 652.819 79.8305C651.461 90.0536 649.289 100.172 644.354 109.362C641.97 113.823 641.035 116.921 644.883 121.561C649.666 127.324 647.719 134.598 644.43 140.586C641.367 146.154 637.821 151.991 633.007 155.973C625.644 162.065 616.726 166.061 606.948 167.244C604.051 167.588 601.048 167.079 598.106 167.199C597.427 167.229 596.476 168.067 596.205 168.74C595.42 170.761 594.696 172.857 594.334 174.982C593.111 182.047 592.04 189.127 590.999 196.222C590.954 196.506 591.814 197.135 592.342 197.269C602.346 199.874 604.76 206.49 605.017 214.168C605.138 217.85 605.771 220.5 610.298 221.907C621.328 225.334 631.996 229.915 642.996 233.462C651.944 236.351 661.269 238.057 670.217 240.946C675.921 242.772 681.806 245.047 686.514 248.565C689.562 250.855 691.176 255.585 692.459 259.521C695.175 267.873 697.272 276.435 699.43 284.219C704.53 275.253 709.374 264.985 715.847 255.824C723.98 244.314 734.875 235.692 749.119 232.175C749.692 232.04 750.326 232.04 750.869 231.831C751.986 231.396 753.902 230.992 754.008 230.349C754.325 228.313 754.506 226.367 751.563 225.125C743.264 221.622 734.603 218.464 727.194 213.54C713.086 204.155 706.22 190.998 710.34 173.65C710.49 172.991 710.279 172.048 709.872 171.48C703.519 162.424 703.263 152.889 707.427 142.951C709.615 137.712 712.678 133.117 717.779 130.362C719.68 129.33 722.124 128.806 724.282 128.866C726.259 128.94 726.757 128.447 727.3 126.71C728.975 121.441 731.117 116.308 732.732 111.024C733.652 108.03 734.06 104.842 734.437 101.729C735.191 95.3972 739.326 91.6402 744.275 88.4071C754.4 81.7913 765.838 79.4862 777.652 78.4684C782.3 78.0642 786.993 77.3158 791.625 77.5104C802.323 77.9594 813.006 78.9623 823.705 79.5311C825.048 79.6059 826.919 78.8126 827.764 77.7948C834.358 69.7869 842.506 65.2366 853.174 65.9102C854.14 65.9701 855.347 66.0599 855.996 66.6436C857.052 67.6016 857.731 68.9637 858.576 70.1611C857.323 70.221 856.041 70.4904 854.819 70.3108C848.557 69.3978 843.064 71.4633 837.994 74.7413C835.685 76.2381 833.724 78.2588 831.928 79.7855C838.236 79.4862 844.467 79.1719 850.699 78.9324C851.469 78.9025 852.419 79.097 852.978 79.561C853.959 80.3693 854.698 81.462 855.528 82.4349C854.396 82.7193 853.264 83.2132 852.103 83.2581C848.919 83.3629 845.72 83.2881 841.555 83.2881C846.203 85.5632 850.035 87.3294 853.777 89.2902C864.898 95.1277 871.885 104.183 873.816 116.517C874.872 123.357 875.476 130.407 875.023 137.278C874.721 142.008 875.219 144.582 879.61 147.411C884.258 150.39 885.661 156.242 885.948 161.855C886.023 163.457 885.902 164.609 888.286 163.951C890.233 163.412 892.466 163.307 894.458 163.666C895.71 163.891 896.736 165.313 897.868 166.211C896.887 166.795 895.952 167.678 894.88 167.902C892.406 168.426 889.75 168.336 887.381 169.1C886.129 169.504 885.314 171.195 883.986 172.662C885.329 172.946 886.023 172.887 886.415 173.201C887.14 173.755 887.683 174.533 888.286 175.222C887.517 175.701 886.702 176.643 885.978 176.569C883.73 176.359 882.99 177.362 881.783 179.218C876.517 187.286 878.629 194.291 883.911 201.236C890.867 210.396 897.989 219.452 904.492 228.912C911.856 239.614 918.54 250.78 922.328 263.338C924.063 269.086 925.391 274.938 926.885 280.761C927.036 281.33 927.202 282.003 927.036 282.527C926.523 284.189 925.859 285.805 925.255 287.437C924.44 285.925 923.218 284.503 922.916 282.916C920.834 271.84 917.047 261.347 911.946 251.364C904.643 237.069 895.092 224.227 885.269 211.564C884.982 211.699 884.695 211.833 884.409 211.953C885.601 214.767 886.732 217.611 888.015 220.38C893.447 232.13 899.347 243.7 904.221 255.675C906.575 261.422 907.012 267.948 908.4 274.115C908.642 275.223 909.094 276.375 909.758 277.288C916.307 286.194 923.158 294.906 929.45 303.991C934.384 311.131 938.835 318.63 943.181 326.159C947.285 333.284 950.907 340.708 954.875 347.937C960.488 358.16 966.283 368.279 971.881 378.502C973.465 381.421 974.642 384.549 976 387.588Z" fill="white"/>
<path d="M971.881 378.502C966.283 368.279 960.488 358.16 954.875 347.937C950.907 340.708 947.285 333.284 943.181 326.159C938.835 318.63 934.384 311.131 929.45 303.991C923.158 294.906 916.307 286.194 909.758 277.288C909.094 276.375 908.642 275.223 908.4 274.115C907.012 267.948 906.575 261.422 904.221 255.675C899.347 243.7 893.447 232.13 888.015 220.38C886.732 217.611 885.601 214.767 884.409 211.953C884.695 211.833 884.982 211.699 885.269 211.564C895.092 224.227 904.643 237.069 911.946 251.364C917.047 261.347 920.834 271.84 922.916 282.916C923.218 284.503 924.44 285.925 925.255 287.437C925.859 285.805 926.523 284.189 927.036 282.527C927.202 282.003 927.036 281.33 926.885 280.761C925.391 274.938 924.063 269.086 922.328 263.338C918.54 250.78 911.856 239.614 904.492 228.912C897.989 219.452 890.867 210.396 883.911 201.236C878.629 194.291 876.517 187.286 881.783 179.218C882.99 177.362 883.73 176.359 885.978 176.569C886.702 176.643 887.517 175.701 888.286 175.222C887.683 174.533 887.14 173.755 886.415 173.201C886.023 172.887 885.329 172.946 883.986 172.662C885.314 171.195 886.129 169.504 887.381 169.1C889.75 168.336 892.406 168.426 894.88 167.902C895.952 167.678 896.887 166.795 897.868 166.211C896.736 165.313 895.71 163.891 894.458 163.666C892.466 163.307 890.233 163.412 888.286 163.951C885.902 164.609 886.023 163.457 885.948 161.855C885.661 156.242 884.258 150.39 879.61 147.411C875.219 144.582 874.721 142.008 875.023 137.278C875.476 130.407 874.872 123.357 873.816 116.517C871.885 104.183 864.898 95.1277 853.777 89.2902C850.035 87.3294 846.203 85.5632 841.555 83.2881C845.72 83.2881 848.919 83.3629 852.103 83.2581C853.264 83.2132 854.396 82.7193 855.528 82.4349C854.698 81.462 853.959 80.3693 852.978 79.561C852.419 79.097 851.469 78.9024 850.699 78.9324C844.467 79.1719 838.236 79.4862 831.928 79.7855C833.724 78.2588 835.685 76.2381 837.994 74.7413C843.064 71.4633 848.557 69.3978 854.819 70.3108C856.041 70.4904 857.323 70.221 858.576 70.1611C857.731 68.9637 857.052 67.6016 855.996 66.6436C855.347 66.0599 854.14 65.9701 853.174 65.9102C842.506 65.2366 834.358 69.7869 827.764 77.7948C826.919 78.8126 825.048 79.6059 823.705 79.5311C813.006 78.9623 802.323 77.9594 791.625 77.5104C786.993 77.3158 782.3 78.0642 777.652 78.4684C765.838 79.4862 754.4 81.7913 744.275 88.4071C739.326 91.6402 735.191 95.3972 734.437 101.729C734.06 104.842 733.652 108.03 732.732 111.024C731.117 116.307 728.975 121.441 727.3 126.71C726.757 128.447 726.259 128.94 724.282 128.866C722.124 128.806 719.68 129.33 717.779 130.362C712.678 133.117 709.615 137.712 707.427 142.951C703.263 152.889 703.519 162.424 709.872 171.48C710.279 172.048 710.49 172.991 710.34 173.65C706.22 190.998 713.086 204.155 727.194 213.54C734.603 218.464 743.264 221.622 751.563 225.125C754.506 226.367 754.325 228.313 754.008 230.349C753.902 230.992 751.986 231.396 750.869 231.831C750.326 232.04 749.692 232.04 749.119 232.175C734.875 235.692 723.98 244.314 715.847 255.824C709.374 264.985 704.53 275.253 699.43 284.219C697.272 276.435 695.175 267.873 692.459 259.521C691.176 255.585 689.562 250.855 686.514 248.565C681.806 245.047 675.921 242.772 670.217 240.946C661.269 238.057 651.944 236.351 642.996 233.462C631.996 229.915 621.328 225.334 610.298 221.907C605.771 220.5 605.138 217.85 605.017 214.168C604.76 206.49 602.346 199.874 592.342 197.269C591.814 197.135 590.954 196.506 590.999 196.222C592.04 189.127 593.111 182.047 594.334 174.982C594.696 172.857 595.42 170.761 596.205 168.74C596.476 168.067 597.427 167.229 598.106 167.199C601.048 167.079 604.051 167.588 606.948 167.244C616.726 166.061 625.644 162.065 633.007 155.973C637.821 151.991 641.367 146.154 644.43 140.586C647.719 134.598 649.666 127.324 644.883 121.561C641.035 116.921 641.97 113.823 644.354 109.362C649.289 100.172 651.461 90.0536 652.819 79.8305C653.861 72.107 654.117 64.3386 650.601 57.0342C647.146 49.9094 641.85 44.2964 635.512 39.5815C634.924 39.1624 634.501 38.5188 634.003 37.9799C634.697 37.8153 635.422 37.471 636.101 37.5309C639.556 37.8452 643.011 38.3541 646.467 38.5487C647.508 38.6086 648.579 37.8901 649.636 37.5309C648.957 36.9172 648.368 36.064 647.568 35.7048C646.497 35.2258 645.26 35.0462 644.083 34.8815C640.839 34.4175 637.579 34.0134 634.335 33.5793C642.136 30.5408 649.847 27.9513 657.905 32.1274C658.448 32.4118 659.76 32.2621 659.987 31.8879C660.349 31.2742 660.47 29.9421 660.062 29.5529C658.961 28.4752 657.633 27.4125 656.199 26.9186C645.577 23.2814 635.889 26.6342 626.323 30.9599C625.086 31.5287 623.26 31.7383 622.037 31.2743C614.78 28.4603 607.763 24.9278 600.369 22.5329C586.94 18.2072 573.179 15.034 559.146 13.2228C558.421 13.133 557.818 12.1751 557.124 11.6961C554.377 9.8251 551.827 7.47513 548.825 6.23279C541.687 3.29906 534.309 3.71815 526.991 5.91845C518.752 8.40314 511.041 11.5614 507.299 20.2279C505.775 23.7454 504.327 27.3975 502.184 30.5408C498.246 36.3933 493.794 41.9015 489.584 47.5744C483.85 55.3129 481.225 63.8745 482.658 73.484C482.99 75.6544 484.213 77.8248 484.047 79.9203C483.503 86.6708 482.417 93.3765 481.693 100.112C480.078 114.871 481.24 129.554 482.538 144.268C483.488 154.925 483.685 165.642 488.151 175.641C490.143 180.101 491.471 184.906 496.193 187.63C503.844 192.046 512.173 194.47 520.804 196.027C522.6 196.356 524.606 196.416 524.274 199.051C523.958 201.55 525.421 204.484 521.332 205.801C507.933 210.112 496.782 218.344 485.722 226.667C483.866 228.074 482.885 229.705 483.156 232.28C483.368 234.27 482.643 236.351 482.342 238.327C480.244 234.106 478.358 230.004 476.185 226.053C472.881 220.081 468.354 215.336 461.473 213.435C454.728 211.579 447.968 209.633 441.118 208.196C433.664 206.624 425.938 206.13 418.62 204.11C412.373 202.388 406.367 199.485 400.558 196.521C395.337 193.872 391.731 189.815 392.214 183.229C392.666 177.003 392.651 170.731 392.968 164.475C392.998 163.936 393.874 163.352 394.462 162.948C399.743 159.221 405.462 155.988 410.276 151.737C420.627 142.651 426.602 131.29 425.033 117.176C423.916 107.147 422.422 97.1334 420.506 87.2246C418.529 77.0015 415.904 66.8981 413.429 56.7797C412.252 51.9301 411.075 47.0356 409.355 42.3506C405.96 33.1303 400.86 24.7931 394.824 17.0247C389.694 10.4388 383.417 5.14012 375.465 2.49079C366.728 -0.413004 357.856 -1.13147 348.847 2.25129C338.994 5.93342 328.401 7.99901 319.076 12.6391C308.499 17.8779 298.389 24.4788 289.154 31.8131C279.829 39.2073 271.213 47.7989 269.886 60.8361C269.403 65.6109 268.528 70.2809 271.862 74.5318C272.798 75.7292 273.039 77.4655 273.794 78.8426C274.654 80.3843 274.322 81.1626 272.843 82.1954C269.267 84.6951 266.581 87.9431 265.811 92.4185C264.197 101.803 265.238 110.949 269.161 119.571C270.655 122.878 272.888 126.321 275.74 128.432C279.965 131.56 284.869 133.985 289.788 135.916C294.888 137.921 300.411 139.014 305.677 136.08C307.88 134.853 308.936 135.481 309.962 137.577C310.913 139.523 312.316 141.229 313.539 143.04C316.225 147.097 320.54 149.821 320.344 155.913C319.982 167.618 319.755 179.098 312.271 189.007C310.34 191.567 309.163 195.084 306.688 196.76C297.921 202.688 287.812 205.382 277.43 207.044C272.753 207.792 267.954 207.882 263.352 208.9C255.023 210.741 246.709 212.746 238.56 215.246C228.375 218.374 219.88 224.092 213.814 233.043C213.256 233.851 211.913 234.136 210.932 234.659C210.464 233.507 209.483 232.295 209.619 231.202C210.042 227.505 210.721 223.823 211.581 220.185C212.471 216.533 213.739 213.674 218.145 212.013C226.398 208.915 234.652 205.637 240.869 198.572C247.267 191.297 251.039 183.155 252.623 173.815C254.495 162.858 253.423 151.871 252.322 140.975C251.386 131.68 249.591 122.459 247.719 113.299C243.54 92.8975 234.637 75.0706 217.918 61.7341C217.662 61.5246 217.707 60.5367 217.964 60.1625C221.857 54.4447 225.795 48.7718 226.051 41.5273C226.172 38.414 224.045 36.7376 220.966 37.3662C216.289 38.3242 211.611 39.6563 206.873 39.9407C202.844 40.1802 197.91 40.4496 194.787 38.5038C185.416 32.6513 173.345 32.2771 164.352 39.4618C158.059 44.4761 152.144 49.9543 145.973 55.1033C142.729 57.8125 139.62 61.1653 135.818 62.6322C125.859 66.4939 116.247 70.8047 107.314 76.7021C99.1059 82.1355 92.9495 89.2004 89.0716 98.1363C86.5819 103.869 87.5928 109.737 89.132 115.529C89.2828 116.068 89.2225 116.652 89.2677 117.206C88.7396 117.086 88.1964 116.966 87.6834 116.831C84.7108 116.098 81.7231 114.691 78.7808 114.766C75.4611 114.856 72.1113 116.128 68.9124 117.265C68.2636 117.505 68.2032 119.406 67.8713 120.543C69.0331 120.648 70.4062 121.202 71.3418 120.783C77.1209 118.193 81.9495 121.067 87.6532 122.938C84.3788 123.253 81.7081 123.088 79.3089 123.821C71.3116 126.261 62.756 138.146 62.9823 146.438C63.0125 147.665 64.28 148.878 64.9741 150.105C65.8342 149.402 67.0866 148.878 67.494 147.98C68.5804 145.585 68.9879 142.861 70.2403 140.571C73.1525 135.227 76.3816 129.973 83.3075 129.15C85.4049 128.911 87.5476 129.21 89.6751 129.27C89.0263 130.737 88.3624 132.203 87.7287 133.685C87.4269 134.404 87.1854 135.137 86.8987 135.871C84.7259 141.454 83.2622 147.082 85.2389 153.099C87.5023 159.999 92.3309 165.088 98.442 168.112C104.055 170.881 107.284 174.428 109.804 180.086C113.939 189.366 121.891 194.575 132.151 195.997C134.732 196.356 135.999 197.03 133.781 199.619C132 201.715 130.325 203.975 128.967 206.355C128.122 207.837 127.096 210.217 127.715 211.279C128.575 212.746 130.914 214.168 132.634 214.183C136.24 214.243 139.877 213.48 143.468 212.821C145.43 212.447 147.286 211.13 149.217 211.055C151.465 210.95 153.729 211.743 156.083 212.163C155.162 214.019 154.212 216.428 152.839 218.554C150.952 221.458 148.161 217.94 145.913 219.183C145.716 219.302 145.339 219.033 145.037 219.048C138.111 219.272 133.539 223.209 134.837 228.582C135.577 231.711 134.143 231.92 132.106 232.429C128.47 233.327 125.512 235.318 125.195 239.165C124.969 241.784 123.716 242.488 121.71 242.637C115.282 243.101 108.854 243.745 102.441 243.775C94.2321 243.805 87.0647 245.691 81.5873 252.232C72.7752 262.769 65.8644 274.474 59.6476 286.643C55.5132 294.741 51.5296 302.929 46.9878 310.802C38.5529 325.47 29.9973 340.079 21.0494 354.448C15.1496 363.923 8.43486 372.919 2.21811 382.199C1.16187 383.786 0.724282 385.776 0 387.588H4.82855C6.18658 385.821 7.63514 384.145 8.85736 382.289C13.3389 375.448 17.8958 368.653 22.151 361.678C29.4692 349.674 36.8328 337.669 43.6983 325.41C52.1634 310.293 59.7985 294.711 68.4296 279.698C74.0578 269.924 79.2485 259.656 87.9248 251.962C89.4639 250.585 91.8178 249.403 93.8247 249.343C103.271 249.134 112.762 249.583 121.951 246.754C123.188 246.379 124.35 245.721 125.603 245.466C126.644 245.257 127.79 245.317 128.847 245.496C130.084 245.721 131.246 246.275 132.468 246.529C136.165 247.322 137.704 250.121 138.745 253.235C142.382 264.042 140.315 274.819 138.066 285.491C137.116 289.996 135.305 294.337 133.585 298.633C133.223 299.561 131.608 300.474 130.507 300.549C127.474 300.773 124.395 300.504 121.332 300.504C119.688 300.504 118.782 300.13 118.767 298.154C118.722 295.205 116.851 293.918 113.969 294.232C111.207 294.531 108.341 294.666 105.73 295.504C104.613 295.879 103.965 297.809 103.195 299.082C102.833 299.695 102.742 301.013 102.395 301.058C99.5888 301.432 99.0003 303.213 98.8041 305.638C97.7479 318.166 96.2541 330.649 95.6354 343.192C95.2883 350.033 97.5517 352.293 104.025 354.433C114.074 357.756 124.003 357.741 133.751 353.146C134.43 352.832 135.607 353.086 136.346 353.475C137.191 353.924 137.689 355.122 138.549 355.436C139.696 355.87 141.039 355.766 142.291 355.9C142.412 354.748 143.046 353.281 142.548 352.473C141.084 350.048 139.409 347.653 137.402 345.677C135.32 343.612 135.939 342.07 137.267 340.019C141.009 334.212 144.736 328.359 148.221 322.372C149.76 319.723 149.398 316.969 146.516 315.142C143.347 313.137 140.088 311.266 136.935 309.245C136.437 308.916 135.878 307.823 136.074 307.464C140.918 298.079 143.695 288.11 144.962 277.678C146.033 268.816 145.898 260.105 142.14 251.094C143.725 251.573 144.705 251.828 145.671 252.157C149.715 253.549 153.789 254.881 157.788 256.408C158.497 256.692 159.357 257.875 159.312 258.563C158.693 266.856 158.225 275.163 157.094 283.395C155.751 293.08 153.819 302.689 152.114 312.313C148.946 330.11 145.732 347.877 142.578 365.674C141.295 372.964 140.133 380.283 138.911 387.588H164.276C164.865 383.097 165.287 378.562 166.102 374.116C166.343 372.829 167.535 371.587 168.562 370.599C171.066 368.219 173.632 365.899 176.348 363.758C180.754 360.301 181.84 356.05 180.165 350.841C179.079 347.458 178.128 344.031 177.359 340.573C177.177 339.75 177.63 338.283 178.294 337.834C184.058 334.002 189.943 330.32 196.401 326.219C195.375 331.832 194.258 336.636 193.655 341.486C193.081 346.186 192.584 350.961 192.825 355.661C193.127 361.319 197.669 363.833 202.256 366.034C207.054 368.339 212.018 369.177 217.285 368.324C217.662 368.264 218.205 368.653 218.507 368.982C218.733 369.222 218.567 369.91 218.794 370.075C223.758 373.323 219.171 376.212 218.401 379.176C217.662 382.034 216.56 384.789 215.61 387.588H221.66C224.693 381.121 227.741 374.64 230.986 367.74C233.189 374.625 235.271 381.106 237.353 387.588H242.8C240.492 381.002 238.485 374.281 235.784 367.86C234.124 363.863 234.441 360.555 236.87 357.247C243.751 347.862 245.939 337.475 244.355 326.009C242.982 316.115 244.34 306.281 246.316 296.537C246.512 295.624 246.014 294.561 245.833 293.574C244.762 294.322 243.012 294.891 242.74 295.864C241.488 300.519 240.628 305.293 239.632 310.023C239.526 310.562 239.39 311.086 239.27 311.625C238.726 311.355 238.213 310.966 237.64 310.832C234.456 310.173 231.272 309.559 228.073 308.946C225.418 308.422 222.762 307.778 220.061 307.524C218.643 307.389 217.149 308.242 215.7 308.182C211.415 308.003 207.145 307.658 202.889 307.209C202.437 307.164 201.773 305.997 201.788 305.338C201.803 299.965 201.803 294.576 202.09 289.203C202.558 280.252 203.086 271.301 203.961 262.395C204.127 260.719 206.043 259.207 207.431 257.216C206.948 268.772 214.78 274.774 222.611 276.66C224.195 277.049 226.202 276.54 227.756 275.866C228.451 275.567 228.511 273.831 228.843 272.738C226.414 271.975 227.651 270.223 227.575 268.682C227.394 264.7 226.911 260.734 226.519 256.483C233.355 259.207 240.597 261.811 247.554 265.015C251.235 266.706 253.74 269.58 254.449 274.19C255.551 281.33 257.784 288.29 259.233 295.385C260.259 300.444 260.696 305.623 261.526 310.712C263.593 323.48 265.661 336.232 267.864 348.97C268.648 353.446 269.75 357.876 270.912 362.277C271.138 363.145 272.315 363.788 273.13 364.447C274.111 365.24 275.408 365.764 276.148 366.722C278.833 370.165 278.32 371.452 275.755 374.94C272.858 378.891 270.655 383.352 268.165 387.588H272.39C274.865 383.846 277.294 380.089 279.844 376.406C280.161 375.957 281.278 375.613 281.761 375.823C282.304 376.047 282.802 376.945 282.847 377.589C283.074 380.927 283.134 384.25 283.255 387.588H288.083C287.887 385.327 287.676 383.067 287.464 380.792C287.736 380.762 287.932 380.687 288.023 380.747C289.185 381.511 290.331 382.289 291.493 383.067C291.825 381.496 292.565 379.864 292.368 378.367C292.157 376.796 291.418 374.82 290.226 373.952C286.635 371.347 288.506 368.443 289.532 365.824C293.53 355.646 297.831 345.587 301.89 335.439C302.629 333.583 302.916 332.999 305.164 334.077C315.395 338.942 325.761 343.537 336.142 348.102C337.998 348.91 340.126 349.075 342.027 349.524C335.388 361.573 332.234 374.565 329.156 387.588H334.588C336.52 380.208 338.375 372.829 340.367 365.465C341.484 361.364 342.842 357.322 344.079 353.251C344.185 352.877 344.26 352.428 344.14 352.083C343.129 348.85 345.362 349.778 346.871 350.033C350.96 350.736 352.695 350.003 354.234 346.261C355.351 343.537 356.528 340.738 357.026 337.879C358.037 331.937 358.882 325.964 359.274 319.962C359.591 314.903 358.55 314.065 353.465 314.095C351.337 314.11 350.568 313.466 350.824 311.4C350.945 310.427 350.839 309.41 350.749 308.422C350.311 303.632 350.809 299.276 355.698 296.702C356.196 296.432 356.664 295.909 356.905 295.4C358.701 291.673 362.231 289.861 365.295 287.422C371.029 282.826 376.793 278.127 378.407 270.328C379.192 266.526 377.653 263.144 374.197 261.153C373.775 260.913 373.473 259.985 373.548 259.432C374.59 251.304 372.568 247.936 364.872 244.718C364.042 244.374 363.242 243.296 362.956 242.398C361.869 239.015 359.893 236.785 356.271 235.977C355.758 235.857 355.155 234.36 355.245 233.597C355.849 228.792 356.89 224.032 357.297 219.227C357.675 214.542 357.599 209.813 357.463 205.098C357.373 202.553 356.135 200.517 353.555 199.365C348.621 197.195 348.742 197.135 349.662 192.061C350.326 188.363 350.809 184.636 351.247 180.924C351.443 179.263 351.624 178.215 353.842 178.47C356.588 178.769 359.395 178.544 362.367 178.544C359.108 186.986 359.561 195.189 360.647 203.391C360.798 204.514 362.277 205.457 363.137 206.49C363.635 205.292 364.51 204.11 364.555 202.897C364.887 195.219 365.008 187.54 365.295 179.862C365.31 179.383 366.064 178.709 366.607 178.529C367.543 178.245 368.584 178.275 369.565 178.185C371.708 178.021 372.673 178.365 372.719 181.119C372.809 188.244 373.458 195.383 374.137 202.493C374.243 203.661 375.601 204.723 376.385 205.831C377.064 204.649 378.347 203.436 378.301 202.284C378 194.89 377.411 187.495 376.913 180.101C376.823 178.784 376.491 177.646 378.694 177.676C381.47 177.706 384.247 177.197 387.023 176.913C387.264 179.562 387.491 182.227 387.762 184.876C387.959 186.807 388.019 188.798 388.562 190.639C389.422 193.602 390.675 196.027 394.13 197.389C397.812 198.856 401.011 201.565 404.361 203.825C411.966 208.929 420.793 210.202 429.484 212.237C440.137 214.737 450.639 217.97 461.081 221.293C467.509 223.329 469.636 229.645 472.986 234.659C473.198 234.989 473.303 235.393 473.484 235.752C477.573 243.835 477.045 244.583 469.003 248.759C460.839 252.995 453.084 258.054 445.041 262.56C439.79 265.509 434.403 268.233 428.986 270.852C423.388 273.561 418.544 276.285 416.522 283.186C413.535 293.454 408.586 303.168 405.568 313.436C403.229 321.444 402.429 329.901 401.162 338.193C399.336 350.197 397.676 362.247 396.001 374.281C395.382 378.697 394.915 383.157 394.387 387.588H399.215C399.939 381.076 400.483 374.535 401.403 368.054C403.817 351.051 406.02 333.987 409.083 317.088C410.532 309.08 413.716 301.372 416.206 293.544C416.975 291.134 417.865 288.724 418.997 286.449C421.547 281.3 426.919 279.578 431.4 276.824C439.835 271.615 448.406 266.631 456.856 261.437C463.374 257.426 469.727 253.175 476.276 249.253C477.045 248.789 478.765 249.448 479.792 250.032C480.425 250.391 480.893 251.603 480.878 252.426C480.833 254.492 480.244 256.558 480.32 258.608C480.38 260.15 481.15 261.677 481.602 263.203C482.568 262.5 483.458 261.677 484.484 261.093C487.683 259.282 490.882 257.516 494.141 255.824C496.525 254.567 498.97 253.399 501.445 252.337C501.852 252.172 503.044 252.666 503.104 252.995C504.689 261.317 506.349 269.64 507.616 278.007C508.476 283.71 508.702 289.487 509.336 295.22C510.302 304.036 511.539 312.837 512.354 321.683C512.988 328.584 513.078 335.529 513.576 342.444C514.331 353.161 515.221 363.878 516.036 374.595C516.368 378.921 516.669 383.262 516.986 387.588H521.211C520.291 375.239 519.295 362.905 518.465 350.557C517.831 340.992 517.605 331.398 516.82 321.848C516.141 313.301 514.783 304.8 514.074 296.253C513.863 293.708 514.723 291.059 515.236 288.469C516.579 281.719 518.103 275.013 519.34 268.248C520.894 259.791 522.207 251.319 523.701 242.862C523.761 242.518 524.667 241.934 524.923 242.054C534.49 246.32 544.464 245.077 554.287 243.775C561.318 242.847 568.199 240.856 575.155 239.329C575.608 239.225 576.046 239.09 576.86 238.88C574.31 244.299 572.258 249.523 569.482 254.327C566.992 258.608 567.762 263.203 567.113 267.664C565.694 277.139 564.17 286.613 563.25 296.148C562.601 303.018 562.812 309.964 562.707 316.879C562.511 328.224 562.36 339.585 562.209 350.931C562.028 363.145 561.862 375.374 561.681 387.588H567.113C567.279 372.874 567.475 358.16 567.611 343.462C567.731 329.946 567.294 316.415 568.018 302.944C568.682 290.236 570.463 277.573 572.017 264.925C572.213 263.218 573.601 261.332 574.989 260.18C577.343 258.234 580.105 256.737 582.775 255.196C584.692 254.073 586.412 254.088 587.966 256.169C591.799 261.318 595.737 266.392 599.811 271.346C600.611 272.304 602.255 273.037 603.478 273.008C604.112 272.993 605.107 271.062 605.213 269.954C605.711 264.087 606.224 258.204 606.269 252.322C606.33 243.76 605.983 235.183 605.832 226.622C605.832 226.083 606.088 225.559 606.224 225.035C606.978 225.275 607.763 225.454 608.487 225.754C614.825 228.433 621.042 231.456 627.515 233.761C638.952 237.818 650.586 241.38 662.084 245.317C669.584 247.876 677.007 250.735 684.446 253.519C685.08 253.759 685.759 254.372 686.046 254.986C690.09 263.338 692.429 272.109 693.032 281.375C694.073 297.645 695.265 313.885 696.518 330.14C697.348 341.007 698.298 351.874 699.355 362.726C699.958 369.072 700.863 375.389 701.678 381.705C701.784 382.483 701.844 386.959 702.267 387.588C702.553 388.022 702.765 387.797 703.021 387.588C703.217 387.423 703.459 387.273 703.776 387.588C703.776 387.588 706.854 388.516 706.794 387.588C706.567 383.426 705.601 374.82 704.606 370.808C703.308 365.6 705.602 361.663 707.955 357.562C714.504 346.171 721.008 334.78 727.526 323.39C727.556 323.33 727.586 323.285 727.632 323.225C730.65 328.359 733.698 333.852 737.062 339.151C740.503 344.585 745.844 347.952 751.261 351.17C752.378 351.829 753.63 352.862 754.008 353.984C756.89 362.576 759.681 371.198 762.216 379.909C762.91 382.319 762.624 385.013 762.805 387.588H767.633C767.603 376.376 764.374 366.019 759.425 356.05C759.078 355.376 760.104 354.134 760.028 353.191C759.923 352.009 759.696 350.392 758.897 349.793C755.864 347.563 752.453 345.857 749.421 343.642C741.936 338.148 736.836 330.754 734.09 322.088C731.721 314.604 732.988 306.79 733.999 299.127C734.392 296.193 734.346 293.005 735.554 290.415C737.621 285.985 740.005 281.509 743.143 277.797C750.794 268.772 755.773 258.324 760.768 247.816C762.126 244.972 763.529 242.128 765.189 239.449C765.657 238.686 767.075 238.282 768.116 238.117C774.801 237.024 774.288 237.399 776.325 243.55C779.629 253.549 783.884 263.218 787.883 272.963C788.999 275.702 790.735 278.171 792.002 280.866C792.244 281.375 791.685 282.348 791.338 283.036C790.071 285.64 788.336 288.11 787.506 290.849C786.464 294.337 788.245 296.971 791.474 298.543C793.828 299.68 798.4 298.528 800.316 296.432C804.662 291.673 805.085 286.569 801.75 281.09C801.358 280.432 801.403 279.07 801.84 278.441C806.729 271.6 811.739 264.85 816.673 258.025C822.995 249.268 829.197 240.422 832.547 229.989C832.743 229.406 834.071 228.582 834.222 228.702C840.967 233.956 848.723 233.387 856.524 232.654C856.901 232.609 857.278 232.609 857.308 232.609C855.181 239.165 852.691 245.691 850.941 252.397C847.395 266.017 845.886 279.938 848.572 293.828C849.719 299.83 851.786 305.937 857.505 309.904C863.435 314.02 867.614 314.544 873.756 308.557C872.367 315.606 871.387 322.761 869.5 329.676C866.166 341.756 862.273 353.7 858.621 365.704C856.841 371.512 853.279 381.735 851.65 387.588C851.484 388.156 852.344 387.797 853.234 387.588C853.762 387.468 854.306 387.393 854.668 387.588C854.939 387.737 855.226 387.722 855.513 387.588C856.463 387.213 857.444 385.702 857.821 385.073C859.104 382.932 859.964 380.478 860.688 378.068C862.74 371.198 864.702 364.297 866.558 357.367C867.086 355.391 868.082 354.553 870.074 354.149C873.499 353.461 876.924 352.667 880.199 351.485C886.415 349.24 888.03 346.53 887.653 340.049C887.607 339.226 887.653 338.403 887.653 337.579C887.97 337.52 888.286 337.445 888.603 337.385C889.328 339.87 890.218 342.324 890.761 344.854C892.044 350.856 894.82 352.188 899.92 348.82C902.153 347.339 904.025 345.318 906.288 343.342C910.332 348.85 914.919 354.912 919.28 361.139C924.923 369.162 930.385 377.304 935.893 385.417C936.331 386.046 936.466 386.854 936.738 387.588H942.17C938.775 382.349 935.531 377.005 931.94 371.886C923.701 360.151 915.417 348.431 906.922 336.876C900.931 328.748 894.805 320.681 888.302 312.957C881.617 305.009 874.404 297.51 867.433 289.802C866.83 289.143 866.392 288.275 865.683 287.766C864.868 287.167 863.827 286.868 862.876 286.434C862.891 287.586 862.454 289.023 862.997 289.802C864.943 292.571 867.207 295.13 869.349 297.75C869.727 298.214 870.255 298.573 870.542 299.067C871.341 300.459 873.046 302.689 872.639 303.198C870.511 305.847 868.293 309.365 864.295 308.571C860.764 307.868 858.033 305.353 856.343 301.956C851.303 291.837 851.891 281.045 852.314 270.223C852.751 258.938 856.041 248.34 859.542 237.758C861.76 231.082 868.414 229.69 874.057 235.348C878.705 239.988 883.141 245.107 886.476 250.72C897.008 268.412 908.778 285.191 921.664 301.282C926.191 306.94 929.993 313.256 933.645 319.543C941.416 332.894 948.854 346.455 956.475 359.897C961.726 369.162 967.067 378.367 972.379 387.588H976C974.642 384.549 973.465 381.421 971.881 378.502ZM109.985 331.667C109.638 336.681 109.517 341.696 109.336 346.71C109.276 348.401 109.125 349.18 106.786 348.865C102.833 348.326 100.358 347.189 100.69 342.654C100.841 340.408 100.313 338.118 100.102 335.933C100.932 326.294 101.701 316.759 102.637 307.239C102.697 306.611 103.814 305.668 104.508 305.593C106.469 305.413 108.491 305.458 110.438 305.743C111.011 305.832 111.856 307.06 111.811 307.703C111.268 315.696 110.528 323.674 109.985 331.667ZM112.46 300.653C110.906 300.758 109.351 300.698 107.797 300.698C107.752 300.429 107.707 300.144 107.661 299.875C109.306 299.591 110.936 299.276 112.596 299.067C112.807 299.037 113.109 299.516 113.365 299.755C113.063 300.07 112.777 300.638 112.46 300.653ZM120.759 338.073C120.608 341.651 120.517 345.228 120.08 348.761C119.974 349.629 118.662 350.362 117.892 351.14C115.297 351.155 114.467 350.407 114.557 348.371C114.919 340.513 115.236 332.655 115.553 324.782C115.764 319.753 115.991 314.708 116.096 309.679C116.172 306.596 118.526 304.859 121.272 306.177C121.755 306.401 121.996 307.599 121.966 308.347C121.604 318.256 121.197 328.165 120.759 338.073ZM132.845 324.976C132.725 328.03 132.317 331.098 131.699 334.092C131.246 336.307 129.873 338.388 129.616 340.603C129.39 342.669 130.069 344.854 130.431 346.979C130.537 347.578 130.884 348.147 131.125 348.746C130.491 348.925 129.873 349.15 129.224 349.255C128.726 349.329 128.213 349.225 127.715 349.255C123.218 349.389 123.535 349.359 123.792 344.899C124.38 334.93 124.471 324.946 124.954 314.978C125.09 312.104 125.708 309.2 126.478 306.416C126.629 305.892 128.575 305.862 129.179 305.728C129.42 308.227 128.907 311.79 129.978 312.343C136.301 315.606 133.026 320.606 132.845 324.976ZM137.9 319.393C138.021 318.57 138.851 317.852 139.349 317.088C140.36 318.271 142.412 319.738 142.171 320.561C141.416 323.15 139.832 325.515 138.504 327.925C138.353 328.18 137.825 328.239 137.478 328.389C137.357 327.955 137.221 327.536 137.221 327.476C137.463 324.333 137.538 321.848 137.9 319.393ZM218.748 233.672C220.529 232.175 221.6 229.555 224.799 230.588C225.297 230.753 226.504 229.84 226.851 229.166C228.254 226.502 230.503 226.652 232.962 226.891C234.924 227.071 236.931 226.936 239.028 226.936C236.222 234.794 229.522 237.638 222.234 239.584C221.072 239.898 219.246 239.808 218.492 239.105C216.681 237.458 216.606 235.468 218.748 233.672ZM218.431 67.3322C215.549 68.1404 213.226 68.799 210.811 69.4726C210.962 67.0627 211.098 64.8175 211.249 62.3927C213.12 63.68 215.489 65.3115 218.431 67.3322ZM106.605 163.277C106.002 165.507 105.353 166.316 103.135 164.909C96.7218 160.852 90.8068 156.332 89.6601 148.234C88.8905 142.756 90.8068 137.682 93.3117 132.907C94.5339 130.557 96.5257 128.596 97.7177 126.246C98.2156 125.258 98.0346 123.133 97.2952 122.474C91.6669 117.46 90.324 104.752 94.1265 98.301C97.7177 92.224 101.837 86.7606 107.631 82.7642C111.962 79.7856 116.564 77.1362 121.302 74.8311C134.716 68.32 147.769 61.3151 158.784 51.062C161.575 48.4575 164.593 46.0627 167.701 43.8025C173.677 39.4468 180.482 38.9977 187.393 40.7041C191.331 41.692 194.983 44.4161 198.906 44.7604C204.866 45.2843 210.977 44.6706 216.968 44.0569C219.322 43.8174 219.442 44.2665 218.688 45.9878C216.953 49.9693 215.157 53.9358 213.271 57.8425C213.165 58.082 212.064 57.9323 211.43 57.8574C205.756 57.1389 201.501 53.5766 196.839 50.7626C194.741 49.4903 192.252 48.7718 189.852 48.1282C189.038 47.9037 187.936 48.682 186.97 49.0113C187.514 49.9693 187.8 51.2865 188.615 51.8253C192.01 54.0705 195.601 56.0014 199.012 58.2017C200.204 58.9651 201.094 60.1625 202.754 61.779C198.061 60.3271 194.394 58.6957 190.562 58.1269C186.05 57.4683 181.387 57.5132 176.815 57.7377C175.503 57.8125 174.265 59.5638 172.998 60.5517C174.099 61.1654 175.291 61.6443 176.272 62.4077C178.611 64.1739 181.267 65.7605 183.002 68.0057C185.974 71.8375 188.343 76.1334 190.23 80.5639C186.291 78.4983 182.444 76.1783 178.37 74.3971C171.187 71.2538 163.703 69.8169 155.902 72.1369C155.706 72.1968 155.494 72.3614 155.328 72.3165C149.957 70.6251 151.511 73.9331 151.707 76.8818C152.265 85.3537 148.825 92.7029 144.162 99.4685C141.431 103.42 138.127 106.982 134.656 111.248C133.962 106.893 133.434 103.465 132.86 100.052C132.679 98.9895 132.649 97.7172 132.031 96.9538C131.367 96.1456 130.024 95.3223 129.133 95.457C128.47 95.5618 127.609 97.2083 127.609 98.1513C127.625 104.468 127.881 110.784 128.002 117.101C128.047 119.825 129.541 120.633 132.679 119.481C131.186 135.481 134.068 148.578 145.324 158.427C145.173 158.697 145.037 158.981 144.902 159.251C140.601 157.065 135.969 155.344 132.061 152.605C121.453 145.196 109.351 153.009 106.605 163.277ZM130.25 190.369C121.287 188.289 115.297 182.616 112.173 174.294C110.136 168.875 109.427 163.262 114.18 158.293C119.748 152.455 127.655 152.38 132.966 158.457C136.09 162.035 146.607 164.879 150.922 163.307C153.759 162.259 153.955 158.188 151.284 155.898C141.144 147.157 137.976 135.661 136.738 122.849C135.999 115.11 141.326 111.608 144.947 106.698C151.284 98.0764 156.4 89.0208 156.143 77.8547C156.128 77.256 157.622 76.0585 158.331 76.1184C162.164 76.4177 166.193 76.4327 169.754 77.6751C176.589 80.0849 183.424 82.7642 188.283 88.6915C189.128 89.7243 191.723 90.787 192.297 90.323C194.032 88.9609 196.341 86.8354 196.326 85.0243C196.28 77.1811 192.538 70.685 187.287 65.0121C186.578 64.2487 185.401 63.9195 184.45 63.3806C184.888 62.8118 185.326 62.2281 185.763 61.6593C193.715 64.4883 201.652 67.3172 208.895 69.8917C207.673 71.2837 205.877 73.4092 204.036 75.4897C199.947 80.1597 197.714 85.7129 196.401 91.6402C196.175 92.658 196.914 93.8854 197.201 95.008C198.302 94.3943 199.841 94.0501 200.43 93.1071C205.274 85.2638 211.279 78.7527 219.835 74.7862C220.876 74.2923 221.449 72.8104 222.747 71.134C225.75 75.6244 228.873 80.2645 231.921 84.9645C232.087 85.2339 231.68 86.1769 231.287 86.4613C229.869 87.509 228.375 88.452 226.851 89.3351C226.323 89.6494 225.644 89.6794 225.025 89.844C225.222 89.2303 225.403 88.6316 225.614 88.0329C226.308 85.9973 227.183 83.9916 227.621 81.911C227.772 81.2524 226.791 80.3543 226.323 79.561C225.629 80.0699 224.648 80.4142 224.271 81.1027C223.169 83.0785 222.641 85.4435 221.268 87.1648C219.85 88.931 217.903 90.5326 215.836 91.5055C209.966 94.2596 205.636 98.5405 202.437 104.004C201.954 104.857 202.482 106.294 202.542 107.461C203.568 107.072 204.806 106.937 205.575 106.264C208.684 103.585 211.656 100.726 214.885 97.7471C216.998 102.761 218.824 107.312 223.833 109.392C226.564 110.53 228.888 109.228 228.964 106.324C228.994 105.052 228.752 103.749 228.451 102.507C228.119 100.995 226.761 99.4685 229.039 98.2561C229.356 98.0914 229.265 96.9688 229.175 96.3252C229.039 95.3074 228.239 93.9153 228.647 93.3765C229.944 91.6552 231.634 90.2332 233.279 88.7813C233.385 88.6765 234.441 89.2303 234.637 89.6644C240.039 101.744 243.359 114.377 245.381 127.429C247.252 139.448 248.006 151.497 247.614 163.621C247.04 180.924 240.778 194.994 224.09 202.658C218.235 205.337 212.169 207.702 205.998 209.528C197.94 211.908 190.275 209.498 182.911 206.205C176.378 203.272 169.708 200.562 163.476 197.06C159.478 194.815 156.037 191.492 152.612 188.363C150.273 186.238 148.87 185.1 145.807 187.899C141.476 191.896 135.773 191.656 130.25 190.369ZM153.397 204.664C151.42 202.568 150.017 203.331 147.935 204.274C143.86 206.115 139.59 207.567 134.913 209.364C136.753 204.409 138.096 200.667 139.56 196.955C139.741 196.461 140.39 196.057 140.918 195.803C142.08 195.249 143.589 195.084 144.464 194.261C147.24 191.611 148.93 192.794 150.937 195.309C152.703 197.554 155.087 199.29 157.064 201.386C157.682 202.044 157.848 203.122 158.21 204.02C156.566 204.289 154.046 205.337 153.397 204.664ZM163.522 265.374C162.782 263.144 162.918 260.599 162.979 258.189C162.979 257.98 165.197 257.486 166.298 257.665C171.564 258.504 176.83 259.446 182.051 260.539C182.715 260.674 183.696 261.901 183.621 262.515C183.092 266.93 183.002 271.556 181.478 275.657C179.592 280.746 176.453 285.386 173.496 290.924C171.293 283.979 169.407 277.513 167.128 271.181C166.389 269.086 164.216 267.469 163.522 265.374ZM168.049 363.145C168.728 359.448 169.225 356.499 169.814 353.565C170.402 350.587 171.066 347.623 171.715 344.644C176.423 349.733 175.201 357.053 168.049 363.145ZM195.058 316.011C194.877 318.869 193.655 321.01 191.09 322.522C185.386 325.919 179.773 329.452 173.782 333.134C175.865 323.539 178.007 314.319 179.833 305.039C182.594 290.999 185.114 276.914 187.815 262.859C187.936 262.246 188.887 261.407 189.52 261.332C192.282 261.048 195.058 260.928 197.835 260.958C198.333 260.973 199.268 262.066 199.238 262.59C198.529 271.166 197.593 279.728 196.914 288.29C196.175 297.525 195.662 306.775 195.058 316.011ZM230.85 318.376C230.865 314.738 232.751 313.092 235.829 314.663C237.368 315.457 237.896 318.42 238.606 320.486C238.953 321.459 238.666 322.641 238.666 323.749C238.953 323.779 239.239 323.809 239.526 323.839C238.802 330.215 238.259 336.636 237.233 342.983C236.885 345.078 235.392 347.024 234.26 348.94C232.238 352.413 230.186 355.87 227.922 359.193C227.349 360.016 225.916 360.271 224.874 360.795C224.92 359.852 224.829 358.879 225.04 357.966C227.938 344.914 230.774 331.847 230.85 318.376ZM221.057 315.277C221.691 311.954 224.769 314.514 226.534 313.706C226.761 314.589 227.304 315.532 227.168 316.37C225.916 324.782 224.648 333.194 223.184 341.561C222.098 347.803 220.649 353.984 219.503 360.211C219.141 362.142 218.431 362.771 216.334 362.681C213.497 362.576 215.263 360.75 214.961 359.762C214.735 359.029 214.916 358.175 214.916 357.382C214.81 357.367 214.704 357.352 214.599 357.322C215.67 350.212 216.726 343.088 217.813 335.963C218.854 329.063 219.759 322.132 221.057 315.277ZM202.874 312.763C202.708 312.014 202.256 311.326 201.924 310.607C202.633 310.727 203.357 310.832 204.082 310.951C207.311 311.505 210.555 311.984 213.754 312.658C214.719 312.852 215.579 313.571 216.108 313.84C214.01 327.132 212.003 339.51 210.147 351.904C209.725 354.778 209.71 357.726 209.725 360.645C209.725 362.307 209.333 362.905 207.688 362.202C205.681 361.349 203.614 360.615 201.667 359.657C197.201 357.427 197.306 353.071 197.804 349.314C199.283 338.103 201.35 326.982 203.116 315.816C203.267 314.828 203.086 313.75 202.874 312.763ZM202.588 246.619C201.984 247.442 202.376 249.373 202.92 250.511C204.232 253.265 203.372 255.001 200.581 255.196C195.103 255.57 189.551 256.034 184.118 255.48C175.125 254.582 166.072 253.504 157.32 251.379C149.76 249.553 142.548 246.245 135.275 243.386C133.69 242.772 132.453 241.305 131.065 240.213C132.725 239.285 134.309 238.087 136.09 237.458C140.435 235.932 143.272 233.851 140.239 228.493C139.847 227.774 140.405 225.858 141.129 225.319C142.563 224.272 144.419 223.793 146.109 223.074C145.053 226.008 144.177 227.28 148.176 228.059C152.039 228.792 155.389 231.965 159.251 232.878C166.042 234.48 173.013 235.632 179.984 236.111C185.884 236.515 191.889 235.827 197.835 235.363C200.249 235.168 202.603 234.255 204.987 233.672C205.017 238.162 205.5 242.622 202.588 246.619ZM205.394 226.622C205.153 227.4 204.066 228.373 203.282 228.463C190.381 229.96 177.479 231.95 164.503 229.481C161.666 228.942 158.92 227.909 156.219 226.891C155.781 226.726 155.404 225.319 155.63 224.736C158.105 218.299 160.715 211.908 163.265 205.517C177.343 211.264 191.21 219.961 208.307 215.5C207.296 219.467 206.466 223.074 205.394 226.622ZM208.608 249.732C208.654 249.089 208.518 248.385 208.759 247.831C209.997 245.017 211.324 242.248 212.607 239.479C215.278 242.368 214.191 248.4 210.494 249.747C209.951 249.942 209.242 249.747 208.608 249.732ZM222.234 271.885C220.68 271.032 218.914 270.418 217.617 269.28C213.995 266.077 210.66 262.47 211.943 257.141C212.366 255.435 214.086 253.863 215.58 252.711C215.942 252.427 218.009 253.789 218.884 254.747C222.007 258.129 223.049 262.305 223.275 266.856C222.928 268.532 222.581 270.208 222.234 271.885ZM298.872 332.251C295.16 340.768 291.222 349.195 287.54 357.726C286.001 361.304 284.945 365.091 283.858 368.234C281.263 365.764 278.411 363.22 275.816 360.466C275.106 359.717 275.016 358.31 274.835 357.173C272.556 343.252 270.308 329.317 268.105 315.397C267.094 309.065 266.521 302.644 265.178 296.388C264.167 291.792 261.934 287.467 260.772 282.886C259.565 278.141 259.489 273.082 257.935 268.472C256.939 265.538 254.57 262.695 252.11 260.659C246.195 255.734 238.515 254.582 231.438 252.127C227.621 250.81 223.924 249.119 220.257 247.412C219.654 247.128 219.276 245.856 219.307 245.047C219.307 244.658 220.438 244.074 221.132 243.955C229.431 242.637 237.082 240.123 241.805 232.504C242.665 231.097 243.329 229.406 243.51 227.789C243.887 224.332 241.608 222.865 236.161 222.266C241.639 220.59 247.056 218.599 252.623 217.312C259.806 215.65 267.2 214.902 274.337 213.121C282.168 211.19 289.924 208.81 297.529 206.101C304.108 203.751 310.189 200.293 314.444 194.47C318.397 189.052 322.23 183.544 323.724 176.823C323.935 175.88 324.946 174.338 325.519 174.368C327.557 174.488 329.578 175.147 331.585 175.671C331.676 175.686 331.646 176.359 331.585 176.718C329.578 188.573 327.511 200.428 325.685 212.312C325.535 213.33 326.953 214.587 327.632 215.725C328.341 214.752 329.488 213.839 329.669 212.776C331.253 203.212 332.672 193.602 334.105 184.008C334.407 181.957 334.92 179.877 334.724 177.871C334.543 176.224 334.784 175.925 336.308 176.194C339.417 176.718 342.555 177.107 345.648 177.736C346.192 177.841 346.991 178.874 346.946 179.413C346.252 186.388 345.573 193.363 344.562 200.293C344.336 201.895 342.54 203.212 342.042 204.828C339.673 212.716 337.244 220.59 335.327 228.597C333.728 235.318 332.883 242.203 331.465 248.984C331.223 250.091 329.941 251.259 328.824 251.858C323.377 254.821 317.688 257.336 312.377 260.509C308.665 262.739 308.348 266.257 309.178 270.343C310.083 274.804 310.083 279.474 310.37 284.054C310.717 289.442 310.943 294.861 311.23 300.264C311.29 301.312 311.547 302.375 311.517 303.408C311.471 305.144 311.275 306.865 311.139 308.586C309.555 308.197 307.986 307.539 306.401 307.524C305.33 307.509 303.731 308.122 303.293 308.931C301.241 312.763 299.596 316.804 297.665 320.681C296.111 323.764 295.854 326.443 298.796 328.988C299.355 329.482 299.279 331.308 298.872 332.251ZM352.001 318.825C352.816 318.869 353.585 319.693 354.415 320.172C352.982 328.135 351.79 335.364 350.236 342.504C350.009 343.507 347.852 344.944 346.825 344.779C333.879 342.579 322.019 337.37 310.521 331.308C307.729 329.826 305.149 327.835 302.735 325.785C301.995 325.156 301.588 323.375 301.89 322.387C302.765 319.558 303.927 316.774 305.36 314.199C305.768 313.481 307.669 313.092 308.695 313.331C313.554 314.454 318.262 316.34 323.15 317.043C330.454 318.061 337.847 318.375 345.211 318.869C347.459 319.019 349.753 318.675 352.001 318.825ZM354.627 283.021C357.448 283.305 359.802 283.56 362.428 283.829C359.093 286.958 357.116 286.793 354.627 283.021ZM373.669 266.092C373.835 267.589 373.76 269.355 373.066 270.643C371.617 273.367 369.716 275.866 368.041 278.381C363.424 272.364 368.78 268.996 371.149 264.91C371.194 264.82 373.609 265.583 373.669 266.092ZM362.624 251.633C362.941 250.541 363.544 249.538 364.012 248.505C365.264 249.553 366.924 250.361 367.679 251.693C370.153 256.019 367.483 259.731 365.717 263.488C365.31 264.371 364.631 265.119 364.057 265.958C359.078 261.587 361.205 256.573 362.624 251.633ZM361.568 276.495C361.598 276.57 358.655 278.246 358.082 277.842C355.049 275.642 352.167 273.172 349.557 270.493C347.293 268.173 345.558 265.359 343.355 262.964C342.766 262.32 340.699 261.931 340.382 262.32C339.688 263.129 339.085 264.88 339.522 265.613C340.895 267.873 340.413 269.655 339.115 271.645C335.976 276.435 332.898 281.255 329.91 286.134C329.503 286.808 329.76 287.886 329.714 288.769C330.906 288.724 332.732 289.158 333.17 288.559C336.233 284.428 338.979 280.087 341.861 275.836C342.45 274.953 343.144 274.145 343.792 273.292C344.17 274.31 344.396 275.417 344.924 276.33C346.599 279.204 348.274 282.093 350.19 284.802C351.579 286.733 353.465 288.32 354.913 290.221C355.17 290.55 354.551 291.882 354.008 292.406C352.273 294.023 350.371 295.459 348.531 296.971C347.037 298.184 346.237 299.426 346.297 301.656C346.388 305.174 345.814 308.751 345.045 312.194C344.864 313.002 342.766 313.391 342.118 313.706C333.924 312.718 326.606 311.894 319.303 310.951C317.341 310.697 316.33 310.128 316.24 307.344C315.817 294.861 315.229 282.333 313.705 269.954C313.192 265.763 313.524 263.578 317.371 262.216C326.878 258.818 336.354 255.315 345.935 252.157C349.3 251.049 354.566 256.483 354.113 259.985C354.008 260.824 354.325 262.171 354.928 262.56C359.983 265.898 359.893 271.615 361.568 276.495ZM353.314 242.712C353.631 241.799 354.31 241.006 354.838 240.168C355.788 240.916 356.98 241.515 357.629 242.473C358.203 243.281 358.173 244.508 358.384 245.481C358.173 246.769 358.127 247.951 357.765 249.044C357.328 250.346 356.633 251.573 356.06 252.846C353.902 251.558 352.137 249.882 352.182 247.248C352.197 245.736 352.786 244.179 353.314 242.712ZM349.481 203.87C350.311 204.559 351.096 205.517 351.413 206.52C351.729 207.522 351.488 208.69 351.488 209.783C351.669 209.813 351.85 209.842 352.031 209.872C350.417 220.17 348.365 230.409 347.338 240.766C346.735 246.649 343.295 247.712 338.677 248.894C336.112 249.553 335.599 249.328 336.233 246.963C339.462 235.079 339.537 222.505 344.29 210.965C345.105 208.989 346.222 207.133 347.399 205.337C347.852 204.649 349.315 203.721 349.481 203.87ZM387.174 169.968C377.502 171.345 367.799 172.452 358.142 173.635C347.776 172.542 337.591 171.435 327.406 170.432C325.489 170.237 324.72 169.698 324.765 167.573C324.871 163.816 324.478 160.059 324.342 156.302C324.327 155.763 324.569 155.209 324.674 154.656C325.037 154.775 325.459 154.82 325.731 155.045C332.672 160.927 340.926 163.891 349.798 165.118C357.871 166.241 366.004 167.244 374.152 167.603C378.135 167.782 382.164 166.346 386.208 165.822C387.053 165.702 388.019 166.36 388.939 166.675C388.351 167.812 387.898 169.863 387.174 169.968ZM367.151 161.616C358.504 160.538 349.738 159.176 341.484 156.541C336.037 154.805 330.861 151.168 326.546 147.306C321.445 142.756 317.326 137.098 312.935 131.784C310.883 129.315 309.208 127.728 305.813 130.123C300.969 133.551 295.884 131.41 290.92 129.839C281.791 126.95 274.94 121.352 272.632 112.072C271.153 106.084 270.761 99.5732 271.304 93.4214C272.043 84.9345 283.375 80.8034 290.165 86.0571C294.058 89.0657 297.65 92.0893 299.928 96.894C301.513 100.247 305.587 102.507 308.74 105.022C309.359 105.516 311.547 105.246 311.788 104.767C312.452 103.33 313.131 101.414 312.679 100.037C311.23 95.6367 309.208 91.4157 307.548 87.075C305.783 82.5097 304.123 77.8996 302.584 73.2595C302.312 72.4363 302.659 71.2987 303.006 70.4156C307.443 59.3093 309.525 47.7241 310.068 35.8545C310.204 32.9357 311.26 31.1845 313.78 29.4033C323.135 22.8623 333.17 17.6234 343.898 13.8216C352.937 10.6334 362.262 8.88212 371.964 8.14869C379.901 7.56494 383.175 12.9534 387.687 16.9648C389.996 19.0005 391.595 21.8294 393.964 24.8829C387.068 23.8351 380.882 23.446 375.193 26.8737C373.669 27.7867 372.1 28.7297 370.832 29.9571C368.644 32.1125 371.029 34.0882 371.587 35.9892C372.719 39.7312 374.756 38.5487 377.366 36.9471C383.387 33.2051 389.89 30.8552 397.208 32.7561C399.607 33.3698 402.55 37.8302 402.414 40.3149C402.369 41.1681 402.686 42.0363 402.882 42.8745C406.639 59.459 410.562 76.0136 414.093 92.6431C415.708 100.292 416.885 108.075 417.699 115.858C418.635 124.675 417.835 133.281 411.875 140.616C406.337 147.426 400.121 153.593 392.138 157.365C384.337 161.047 375.767 162.708 367.151 161.616ZM589.369 24.4638C593.745 26.0654 597.714 27.188 601.38 28.9243C610.781 33.3997 620.302 37.7105 629.265 42.9194C636.131 46.9009 641.819 52.9928 645.018 60.0877C647.161 64.8475 647.04 70.9993 646.603 76.4177C645.697 87.3593 642.619 97.8669 638.123 107.925C637.519 109.287 636.825 110.635 635.935 111.802C635.406 112.506 634.411 112.88 633.626 113.389C633.173 112.536 632.434 111.727 632.328 110.829C631.861 106.833 631.695 102.806 631.121 98.8248C631.016 98.1064 629.552 97.5825 628.707 96.9688C628.284 97.807 627.53 98.6303 627.515 99.4685C627.394 102.941 627.575 106.414 627.5 109.871C627.485 110.62 626.836 111.368 626.474 112.101C626.262 111.353 625.84 110.59 625.9 109.856C626.247 105.635 624.919 102.088 621.917 99.0943C621.509 98.6752 620.936 97.9418 621.057 97.5526C623.758 89.0358 619.412 82.6893 614.629 76.4177C609.785 70.0563 604.549 63.9195 602.135 56.0463C601.969 55.5074 600.113 54.8937 599.419 55.1931C597.487 56.0014 595.737 57.2587 593.021 58.8902C593.926 56.0613 594.53 54.2501 595.103 52.424C595.435 51.4062 596.009 50.3734 595.963 49.3706C595.903 48.0983 595.692 46.2273 594.877 45.7633C594.062 45.2993 592.312 46.0327 591.18 46.6314C589.384 47.6043 587.755 48.9066 586.065 50.0741C590.245 42.0512 591.965 33.9835 589.369 24.4638ZM618.597 112.146C617.511 111.982 615.941 111.967 615.489 111.278C614.493 109.796 613.708 108 615.609 106.324C616.983 105.111 618.099 103.645 619.684 101.923C620.332 104.273 620.876 106.384 621.479 108.479C622.234 111.054 621.751 112.655 618.597 112.146ZM574.099 20.7817V21.4403C571.338 22.0689 568.471 23.4161 565.83 23.0718C564.17 22.8622 562.827 20.153 561.907 18.0126C565.966 18.9406 570.025 19.8537 574.099 20.7817ZM495.741 49.4753C503.708 41.5722 508.657 31.9329 512.897 21.7696C515.357 15.8872 520.713 13.5671 525.919 11.8907C523.309 19.3148 520.547 26.5594 518.254 33.9386C517.318 36.9172 517.409 40.2101 516.971 43.3534C516.881 43.8923 516.353 44.8502 516.111 44.8203C511.6 44.3713 510.875 48.4575 508.642 50.7476C508.25 51.1517 507.133 51.5409 506.877 51.3314C503.98 48.8617 501.988 51.0171 500.283 52.7833C496.525 56.645 493.01 60.7612 489.207 64.9822C489.826 59.0549 491.516 53.6514 495.741 49.4753ZM518.163 189.561C513.29 188.348 508.461 186.852 503.723 185.205C496.616 182.735 495.062 176.254 492.844 170.132C489.886 161.945 489.615 153.383 488.845 144.896C487.834 133.895 486.597 122.863 486.536 111.847C486.491 102.282 488.136 92.7328 488.709 83.1533C489.313 73.1397 494.609 65.7306 501.354 58.9651C502.44 57.8724 502.938 57.6778 504.161 58.8902C505.458 60.1775 507.299 60.9408 509.019 61.9886C507.571 62.9615 505.383 64.2787 503.406 65.8653C502.803 66.3592 502.787 67.6016 502.501 68.4997C503.482 68.6194 504.553 69.0834 505.428 68.829C512.49 66.8532 519.416 64.3086 526.568 62.7969C531.955 61.6593 537.387 62.6622 542.065 66.1647C542.925 66.8233 545.007 67.437 545.203 67.1376C545.973 66.0599 546.199 64.608 546.637 63.2309C546.938 63.4854 547.421 64.2038 547.995 64.2637C548.945 64.3835 549.956 64.0691 550.937 63.9344C550.756 62.9465 550.907 61.6593 550.334 61.0157C545.897 56.0613 539.937 54.31 533.539 54.0406C525.285 53.6814 517.469 55.2081 510.226 61.2552C511.916 58.0071 513.124 55.5074 514.572 53.1724C514.844 52.7533 516.292 52.6935 517.017 52.9629C520.155 54.1304 522.087 53.6065 522.509 50.4632C523.339 44.4012 528.167 41.5273 531.834 37.6656C538.549 30.6157 547.663 29.3883 556.535 27.5323C558.482 27.1281 559.689 27.6819 560.504 29.6577C563.431 36.7376 563.386 37.4112 573.164 35.8096C576.483 35.2558 579.848 34.9115 583.198 34.6421C583.62 34.5972 584.586 35.57 584.541 36.0041C583.922 41.9764 582.413 47.5295 577.238 51.4661C576.015 52.3941 575.412 54.1304 574.522 55.4925C576.694 56.0014 579.033 57.2437 580.995 56.8246C583.817 56.2109 586.397 54.3848 589.641 52.7982C588.841 54.8488 587.981 56.5103 587.574 58.2616C587.257 59.6087 586.97 61.809 587.664 62.3628C588.856 63.2758 590.908 63.6351 592.463 63.4106C594.877 63.0663 597.578 60.9558 599.419 61.6144C601.003 62.1832 601.35 65.7156 602.633 67.6764C606.043 72.8703 609.468 78.0642 613.24 83.0037C617.978 89.2304 617.239 97.7322 611.098 102.507C608.367 104.617 606.45 106.773 608.699 110.38C609.106 111.039 608.789 112.131 608.849 113.029C609.015 115.649 612.305 117.759 614.855 116.936C620.996 114.96 626.836 116.891 632.615 118.553C634.863 119.181 637.187 120.334 638.862 121.906C641.804 124.645 642.106 128.491 641.367 132.174C639.254 142.756 632.645 149.971 623.38 155.105C615.579 159.415 607.371 161.975 597.985 161.107C599.705 158.113 601.411 155.209 603.055 152.291C603.432 151.617 603.915 150.809 603.84 150.12C603.734 149.177 603.161 148.294 602.784 147.366C601.984 147.86 600.943 148.159 600.43 148.863C591.784 160.388 583.454 172.153 574.491 183.439C570.463 188.543 563.944 190.175 557.727 191.492C544.388 194.306 531.2 192.779 518.163 189.561ZM519.34 240.722C518.646 247.068 517.56 253.369 516.413 259.641C515.251 265.883 513.803 272.049 512.445 278.486C511.056 270.373 510 262.47 508.28 254.702C506.771 247.891 505.172 240.931 500.162 235.558C499.015 234.315 497.37 233.417 495.816 232.684C495.258 232.414 494.262 233.088 493.477 233.327C493.779 234.046 493.885 235.109 494.428 235.423C498.306 237.638 499.709 241.485 501.203 245.272C501.776 246.754 501.641 247.727 499.664 248.595C494.519 250.825 489.584 253.564 484.409 256.183C485.178 248.4 485.903 240.557 486.793 232.729C486.899 231.816 487.774 230.753 488.589 230.169C499.226 222.715 509.125 214.049 521.634 209.543C522.192 209.334 522.811 209.229 523.399 209.079C523.384 209.648 523.46 210.217 523.339 210.756C522.117 216.503 520.547 222.206 519.718 227.999C519.114 232.175 519.808 236.516 519.34 240.722ZM530.295 239.06C528.333 238.342 526.327 237.653 524.546 236.59C523.837 236.171 523.716 234.794 523.324 233.851C523.279 231.741 524.018 231.621 525.738 232.295C527.473 232.968 529.435 233.043 531.155 233.761C532.061 234.136 532.936 235.183 533.328 236.141C534.641 239.329 533.268 240.153 530.295 239.06ZM540.707 240.033C538.7 240.781 537.764 239.644 537.478 237.384C537.07 234.151 539.183 234.33 541.024 234.525C542.774 234.704 546.38 232.265 545.626 236.456C546.048 241.32 542.442 239.404 540.707 240.033ZM551.933 238.91C551.118 238.91 550.303 237.444 549.489 236.665C549.307 233.896 550.515 233.357 552.34 233.462C554.181 233.552 557.516 233.447 557.622 233.941C558.331 237.414 556.565 238.925 551.933 238.91ZM569.271 235.573C567.822 236.111 566.268 236.426 564.729 236.635C563.808 236.77 562.827 236.53 561.877 236.456C562.677 234.899 563.114 232.848 564.382 231.95C565.679 231.022 567.807 230.992 569.557 231.007C570.176 231.007 570.764 232.324 571.73 233.477C570.674 234.405 570.085 235.258 569.271 235.573ZM548.251 228.777C545.777 228.822 543.332 229.72 540.858 229.795C539.364 229.855 537.855 229.061 536.346 228.702C535.697 228.553 534.792 228.223 534.414 228.508C531.563 230.678 528.877 228.882 526.236 228.133C525.799 228.014 525.451 226.068 525.723 225.14C527.79 218.03 529.827 210.92 529.556 203.391C529.495 201.371 529.541 199.335 529.541 197.299C531.578 197.599 533.615 197.988 535.682 198.167C549.081 199.335 561.982 197.748 573.224 189.83C577.011 187.166 579.923 183.214 583.047 179.682C585.944 176.404 588.6 172.916 591.361 169.519C587.362 182.331 585.325 195.219 585.19 208.421C585.159 211.444 585.31 214.513 584.858 217.476C584.677 218.734 583.379 220.38 582.187 220.859C571.323 225.289 560.142 228.493 548.251 228.777ZM576.528 233.627C576.317 233.687 575.367 232.624 575.457 232.22C575.729 230.932 575.985 229.121 576.891 228.597C578.716 227.565 580.95 227.265 583.454 226.517C582.308 228.807 581.07 230.678 580.391 232.729C579.531 235.408 577.781 233.238 576.528 233.627ZM600.988 260.824C600.988 261.587 600.777 262.335 600.55 263.907C597.578 260.195 595.013 257.111 592.598 253.908C589.279 249.568 584.993 248.625 580.271 251.469C578.354 252.621 576.544 253.953 573.767 255.824C575.97 251.289 577.72 247.697 579.456 244.104C582.006 238.836 583.892 233.118 587.257 228.433C591.633 222.356 588.675 215.815 589.958 209.633C590.411 207.433 590.486 205.113 590.456 202.838C590.426 200.323 591.618 200.682 593.187 201.401C597.186 203.242 599.404 206.475 599.932 210.636C600.535 215.336 600.882 220.111 600.943 224.84C601.079 236.845 601.003 248.834 600.988 260.824ZM711.426 147.92C713.101 143.43 716.285 139.493 718.865 135.362C719.197 134.823 719.921 134.359 720.555 134.194C721.913 133.82 723.346 133.655 724.75 133.401C724.584 134.613 724.508 135.841 724.237 137.023C723.618 139.792 722.909 142.516 722.094 145.839C721.355 144.432 721.083 143.355 720.389 142.756C719.589 142.082 718.427 141.828 717.416 141.379C717.099 142.427 716.164 143.894 716.556 144.462C720.525 150.345 719.091 155.718 715.53 161.122C714.323 162.963 713.614 165.133 712.392 167.782C709.449 160.762 709.102 154.177 711.426 147.92ZM755.004 246.11C751.639 256.333 746.931 265.928 739.779 274.22C740.805 271.047 742.042 267.918 742.751 264.685C743.113 263.069 742.917 259.985 742.208 259.731C739.552 258.818 739.537 261.467 738.934 263.144C738.798 263.518 738.617 263.877 738.451 264.251C738.27 264.102 738.104 264.012 737.998 263.877C737.213 262.829 736.429 261.767 735.644 260.704C735.206 262.186 733.954 264.131 734.482 265.06C737.741 270.747 734.407 275.642 733.109 280.806C731.857 285.76 730.544 290.73 729.578 295.744C728.613 300.863 727.089 306.147 727.511 311.221C728.084 317.986 723.241 321.773 720.691 326.743C716.239 335.439 711.019 343.761 706.099 352.233C705.375 353.49 704.53 354.658 703.202 356.679C702.644 349.03 702.055 342.294 701.678 335.559C701.15 326.413 700.788 317.253 700.35 308.092C700.169 304.216 699.913 300.339 699.762 296.447C699.732 295.804 699.883 295.055 700.184 294.487C706.054 283.859 711.713 273.112 717.914 262.68C725.233 250.406 735.704 241.605 749.451 236.95C750.175 236.71 751.216 237.219 752.031 237.548C752.438 237.713 752.604 238.521 752.997 238.626C758.036 239.973 755.894 243.446 755.004 246.11ZM794.1 293.484C793.24 293.349 792.53 292.167 792.138 291.807C792.515 288.11 793.436 285.626 796.499 284.982C796.891 284.907 798.279 287.242 798.385 288.529C798.611 291.298 796.348 293.828 794.1 293.484ZM817.247 249.508C811.467 257.89 805.07 265.853 798.928 273.98C798.174 274.983 797.238 275.851 796.393 276.779C795.684 275.642 794.824 274.564 794.281 273.352C790.523 264.79 786.781 256.213 783.13 247.607C782.089 245.152 781.183 242.607 780.534 240.033C780.384 239.434 781.576 237.803 782.013 237.848C798.596 239.554 813.535 234.031 828.307 227.699C828.473 227.639 828.684 227.729 830.329 227.924C825.757 235.528 821.879 242.772 817.247 249.508ZM830.118 221.802C817.699 227.445 804.888 231.905 791.353 233.941C788.411 234.39 785.333 234.165 782.33 233.956C781.47 233.896 780.685 232.848 779.87 232.235C780.685 231.486 781.47 230.109 782.315 230.064C793.798 229.481 803.817 224.556 813.701 219.497C819.042 216.758 824.006 213.285 829.167 210.142C829.771 213.405 830.465 216.937 831.038 220.485C831.098 220.874 830.555 221.607 830.118 221.802ZM877.241 172.916C875.189 173.41 874.872 174.398 875.853 176.165C876.125 176.688 876.125 177.557 875.913 178.125C874.133 182.571 871.236 185.804 866.694 187.914C860.326 190.878 853.974 193.602 846.867 194.171C844.362 194.366 842.672 194.171 844.845 191.207C845.282 190.594 845.614 189.711 845.554 188.992C845.494 188.169 844.935 187.391 844.603 186.597C843.909 186.956 843.004 187.136 842.551 187.69C839.533 191.432 836.862 195.488 833.603 199.006C827.296 205.801 820.566 212.282 811.829 215.949C804.285 219.108 796.725 222.55 788.818 224.451C777.894 227.086 766.909 225.02 756.286 221.712C744.079 217.91 732.309 213.121 723.286 203.676C715.741 195.773 712.165 183.813 716.436 173.036C719.106 166.301 722.637 159.879 725.021 153.054C727.737 145.271 729.503 137.173 731.887 129.27C734.603 120.289 737.002 111.069 743.234 103.734C747.821 98.3459 753.812 94.4542 760.164 91.251C767.573 87.524 775.299 84.7998 783.507 83.8868C780.61 87.1348 777.215 90.0386 774.966 93.6459C771.602 99.0494 769.746 105.067 773.201 111.263C773.805 112.326 775.464 112.79 776.641 113.538C776.717 112.206 777.185 110.754 776.792 109.587C775.299 105.141 776.475 101.055 778.678 97.4029C781.757 92.3138 785.695 87.8533 790.931 85.3536C790.569 88.7813 789.98 92.3137 789.86 95.8761C789.663 102.507 792.968 107.342 798.491 110.754C799.215 111.203 800.271 111.518 801.041 111.338C801.976 111.114 802.761 110.32 803.621 109.766C803.123 109.078 802.791 108.165 802.127 107.731C794.462 102.851 792.168 93.122 796.604 85.9673C800.331 91.9096 803.666 98.5255 808.253 104.138C812.524 109.332 817.76 113.987 823.282 117.864C826.496 120.109 828.85 122.085 829.891 125.902C833.392 138.67 840.635 149.028 851.076 157.23C851.605 157.634 851.74 158.517 852.087 159.146C852.766 160.343 853.461 161.541 854.155 162.723C855.286 161.96 856.524 161.316 857.535 160.418C860.839 157.529 863.721 154.027 867.388 151.737C871.537 149.147 873.74 150.015 876.532 154.177C877.649 155.838 878.418 157.889 878.81 159.879C879.897 165.253 879.791 165.268 874.842 167.199C874.208 167.453 873.378 167.693 873.046 168.202C872.337 169.249 871.915 170.477 871.371 171.629C872.624 171.779 873.861 172.003 875.129 172.033C875.672 172.048 876.215 171.569 876.788 171.509C877.392 171.45 878.011 171.614 878.629 171.689C878.162 172.108 877.769 172.782 877.241 172.916Z" fill="black"/>
<path d="M642.317 322.057C638.575 321.773 639.782 318.914 639.752 316.983C639.722 314.349 638.454 312.463 636.085 312.418C632.237 312.343 628.329 312.792 624.542 313.511C623.531 313.705 622.399 315.576 622.143 316.849C621.75 318.735 622.852 321.818 621.916 322.506C620.498 323.524 617.888 322.926 615.775 323.015C614.191 323.075 612.606 323.21 611.037 323.135C602.889 322.761 594.741 322.312 586.593 321.908C584.857 321.833 583.409 322.013 583.394 324.363C583.333 332.221 582.971 340.064 583.077 347.922C583.182 355.301 583.65 362.681 584.118 370.045C584.556 376.631 586.17 382.828 591.27 387.587H602.15C601.139 386.824 600.218 385.567 599.117 385.387C594.409 384.579 592.296 381.136 591.421 377.274C590.123 371.616 589.369 365.809 588.916 360.016C588.056 349.164 587.649 338.268 586.834 327.416C586.713 325.754 586.894 325.59 588.373 325.784C593.217 326.413 598.075 327.476 602.919 327.416C614.568 327.266 626.217 326.563 637.881 326.144C638.349 326.129 639.284 326.727 639.269 327.027C639.148 332.715 639.088 338.402 638.65 344.075C637.881 353.894 637.036 363.713 635.859 373.487C635.27 378.442 633.082 382.813 628.314 385.327C626.851 386.091 625.357 386.839 623.893 387.587H635.361C640.506 382.842 641.97 376.721 642.106 370.06C642.166 367.485 642.589 364.911 642.634 362.336C642.86 349.434 643.026 336.531 643.162 323.629C643.162 323.09 642.649 322.087 642.317 322.057ZM632.449 322.072C631.513 321.923 630.442 322.477 629.536 322.267C628.435 322.012 626.82 321.534 626.534 320.755C625.674 318.48 627.228 317.896 629.235 318.031C629.733 318.061 630.231 318.031 630.744 318.031C630.759 317.956 630.774 317.866 630.789 317.792C631.981 318.076 633.188 318.345 634.395 318.63C633.958 319.887 636.417 322.701 632.449 322.072Z" fill="black"/>
<path d="M96.7074 286.539C93.4482 300.339 94.0065 314.514 92.1958 328.449C91.0339 337.37 92.8899 346.216 91.8789 354.927C90.7321 364.791 87.7897 374.461 85.6018 384.205C85.3453 385.342 84.9077 386.465 84.5606 387.588H78.525C83.0819 376.511 84.787 364.866 85.813 352.862C77.2122 364.612 68.8075 376.107 60.4028 387.588H54.9707C60.1312 379.999 65.2163 372.35 70.4824 364.821C75.145 358.146 80.0188 351.619 84.7417 344.974C85.1491 344.405 85.1038 343.492 85.1793 342.728C85.9338 335.499 86.643 328.269 87.3974 321.04C87.9104 316.16 88.5291 311.505 85.9639 306.671C83.776 302.569 82.8857 297.735 81.7691 293.139C81.4975 292.017 82.5689 290.58 83.0064 289.278C83.9118 290.37 85.1642 291.328 85.6471 292.571C86.8391 295.639 87.6539 298.857 88.68 302.195C90.4152 296.447 91.9544 291.104 93.7047 285.82C93.9914 284.952 95.1985 284.383 95.9832 283.68C96.2548 284.638 96.9036 285.685 96.7074 286.539Z" fill="black"/>
<path d="M463.237 387.588C460.527 379.231 457.888 370.852 455.089 362.524C451.43 351.634 448.103 340.6 443.704 330.009C441.707 325.196 437.476 321.296 434.254 316.985C433.483 315.954 432.546 315.006 431.977 313.876C431.648 313.224 431.573 311.926 431.976 311.564C432.454 311.133 433.835 311.034 434.354 311.418C436.169 312.761 437.78 314.375 439.7 316.09C439.2 313.902 438.687 311.893 438.301 309.859C438.1 308.806 437.928 307.676 438.118 306.648C438.227 306.06 439.087 305.609 439.609 305.097C440.142 305.644 440.96 306.103 441.163 306.751C442.641 311.45 443.878 316.225 445.41 320.907C449.681 333.969 454.007 347.014 458.412 360.033C461.074 367.9 463.925 375.703 466.687 383.536C467.161 384.881 467.609 386.236 468.07 387.586C466.459 387.588 464.849 387.588 463.237 387.588Z" fill="black"/>
<path d="M643.217 387.588C645.261 379.053 647.393 370.539 649.328 361.979C651.575 352.033 653.506 342.016 655.837 332.091C657.885 323.376 660.269 314.738 662.561 306.082C663.27 303.402 664.044 300.724 665.042 298.14C665.399 297.215 666.499 296.573 667.26 295.801C667.622 296.864 668.407 297.986 668.263 298.977C667.862 301.764 667.079 304.497 666.198 308.327C668.046 306.401 669.003 305.133 670.226 304.214C671.157 303.514 672.428 303.255 673.546 302.8C673.424 304.069 673.715 305.603 673.096 306.555C671.702 308.7 670.076 310.803 668.147 312.474C664.731 315.433 663.052 319.149 662.069 323.393C658.931 336.952 655.732 350.498 652.522 364.041C650.66 371.898 648.735 379.738 646.838 387.586C645.633 387.588 644.425 387.588 643.217 387.588Z" fill="black"/>
<path d="M166.092 387.588C166.508 382.136 167.976 377.224 173.273 374.42C176.005 372.973 178.094 373.878 177.895 376.836C177.652 380.451 176.508 384.007 175.755 387.589C172.533 387.588 169.313 387.588 166.092 387.588Z" fill="black"/>
<path d="M131.665 387.587C130.078 384.491 128.391 381.436 126.988 378.258C126.707 377.622 127.511 376.513 127.816 375.622C128.723 375.983 130.057 376.088 130.458 376.751C131.73 378.843 132.93 381.066 133.603 383.395C133.957 384.622 133.155 386.179 132.874 387.586C132.471 387.587 132.068 387.587 131.665 387.587Z" fill="black"/>
<path d="M800.437 309.009C799.657 309.688 798.984 310.594 798.08 311.01C789.539 314.955 780.981 318.862 772.366 322.643C771.402 323.066 770.058 322.634 768.89 322.598C769.641 321.656 770.195 320.309 771.176 319.838C779.573 315.813 788.029 311.905 796.524 308.088C797.556 307.624 798.929 307.904 800.144 307.838C800.241 308.229 800.339 308.618 800.437 309.009Z" fill="black"/>
<path d="M799.019 320.42C799.462 320.687 800.332 320.916 800.487 321.38C800.65 321.865 800.277 322.978 799.877 323.126C795.216 324.861 790.524 326.517 785.784 328.021C785.327 328.166 784.246 327.273 783.934 326.632C783.745 326.246 784.344 325.006 784.826 324.848C789.437 323.313 794.1 321.93 799.019 320.42Z" fill="black"/>
<path d="M555.084 298.779C553.772 303.027 552.654 306.766 551.464 310.483C547.292 323.503 541.688 335.898 534.825 347.737C534.031 349.105 533.266 350.527 532.234 351.706C531.612 352.416 530.5 352.701 529.609 353.179C529.503 352.097 528.966 350.82 529.36 349.964C532.003 344.216 535.092 338.663 537.567 332.849C542.006 322.424 546.11 311.858 550.365 301.357C550.776 300.343 551.147 299.279 551.764 298.393C552.199 297.769 553.311 296.875 553.608 297.035C554.332 297.428 554.762 298.362 555.084 298.779Z" fill="black"/>
<path d="M557.959 337.147C556.112 342.452 554.413 347.412 552.653 352.35C551.861 354.573 551.107 356.834 550.023 358.918C549.471 359.981 548.229 360.69 547.298 361.56C546.951 360.283 546.037 358.845 546.354 357.756C547.78 352.854 549.571 348.057 551.193 343.21C551.941 340.976 552.456 338.651 553.382 336.497C553.752 335.637 554.944 335.123 555.76 334.451C556.467 335.316 557.17 336.18 557.959 337.147Z" fill="black"/>
<path d="M563.189 157.245C562.812 154.341 560.201 153.398 557.485 153.114C545.716 151.857 533.961 150.554 522.176 149.372C521.196 149.267 519.4 149.641 519.264 150.15C518.48 152.964 516.624 155.718 518.962 158.802C525.27 167.154 534.112 170.447 543.92 171.854C544.765 171.719 545.429 171.614 546.108 171.525C552.596 170.626 556.52 165.702 561.107 161.9C562.314 160.882 563.37 158.727 563.189 157.245ZM529.555 161.84C530.294 161.346 530.913 161.167 531.079 160.807C533.342 155.703 537.477 156.377 541.883 157.006C546.998 157.724 552.174 157.964 557.289 158.413C551.676 166.765 545.369 169.429 529.555 161.84Z" fill="black"/>
<path d="M572.601 63.1636C581.455 63.9404 589.291 65.1558 595.438 70.6954C600.878 75.596 605.873 80.9695 607.783 88.3352C608.008 89.2019 607.404 90.2811 607.184 91.263C606.472 90.8125 605.532 90.5191 605.084 89.8844C600.816 83.8284 595.239 79.2107 588.35 76.6886C581.274 74.0992 573.862 72.4198 566.615 70.2884C565.589 69.986 564.654 69.3798 563.677 68.9158C564.534 67.4384 565.043 65.28 566.325 64.6379C568.45 63.5707 571.072 63.4809 572.601 63.1636Z" fill="black"/>
<path d="M523.521 126.432C524.767 122.417 525.461 118.123 527.365 114.444C533.08 103.402 539.234 92.5832 545.341 81.7463C545.744 81.0309 547.192 80.8961 548.155 80.4905C548.208 81.4769 548.646 82.6533 548.258 83.4182C543.708 92.39 538.771 101.179 534.504 110.278C532.331 114.912 530.766 119.987 529.927 125.026C529.214 129.316 532.173 132.166 536.58 133.489C537.56 133.783 538.284 134.908 539.126 135.652C537.947 136.33 536.746 137.626 535.595 137.583C528.521 137.312 524.892 133.652 523.521 126.432Z" fill="black"/>
<path d="M565.837 95.2459C563.762 95.451 561.876 95.8387 560.02 95.7339C559.084 95.6815 558.2 94.7325 557.293 94.1877C557.98 93.5186 558.56 92.4499 559.369 92.2388C571.43 89.0791 582.539 90.1583 591.555 99.7947C592.962 101.299 594.4 102.835 595.467 104.571C595.965 105.382 595.611 106.707 595.642 107.8C594.553 107.624 593.18 107.803 592.428 107.208C590.438 105.634 588.899 103.469 586.841 102.014C584.113 100.087 581.08 98.5703 578.112 97.0017C577.831 96.8535 576.722 97.4851 576.597 97.9237C575.359 102.261 572.483 105.022 568.207 106.098C566.777 106.457 564.344 106.241 563.655 105.331C562.708 104.08 562.502 101.812 562.87 100.178C563.244 98.497 564.691 97.054 565.837 95.2459Z" fill="black"/>
<path d="M516.739 85.2414C513.217 85.7608 510.345 86.3879 507.45 86.5316C505.792 86.6139 504.094 85.9104 502.415 85.5602C503.726 84.5962 504.904 83.3045 506.369 82.7208C514.67 79.4128 523.079 78.9578 531.238 83.0156C533.64 84.2101 535.641 86.3146 537.568 88.2544C538.075 88.7648 537.613 90.2197 537.595 91.242C536.646 91.2166 535.288 91.5878 534.816 91.1043C531.185 87.3938 528.357 87.3159 525.131 91.8707C523.9 93.6085 520.924 94.3958 518.583 94.993C517.273 95.3268 515.073 94.8314 514.299 93.8854C513.535 92.9529 513.763 90.9052 514.118 89.4848C514.432 88.2185 515.516 87.1423 516.739 85.2414Z" fill="black"/>
<path d="M626.289 123.018C629.458 124.547 632.721 125.921 635.718 127.732C636.35 128.114 636.002 130.094 636.106 131.338C635.01 131.301 633.637 131.672 632.869 131.156C629.4 128.821 621.856 129.827 619.393 131.367C619.049 131.582 618.835 132.756 619.075 133.018C622.245 136.45 620.864 143.817 617.999 147.061C617.389 147.751 616.165 147.906 615.224 148.308C614.924 147.288 614.302 146.242 614.383 145.254C614.598 142.65 615.503 140.059 615.414 137.486C615.31 134.438 614.014 134.031 611.476 135.703C610.83 136.13 610.16 136.583 609.433 136.809C608.304 137.161 607.117 137.33 605.953 137.577C606.145 136.397 605.918 134.848 606.594 134.1C611.734 128.409 617.852 124.386 625.839 123.929C625.99 123.624 626.139 123.32 626.289 123.018Z" fill="black"/>
<path d="M504.463 99.404C504.229 99.1107 503.771 98.726 503.567 98.2365C503.179 97.307 503.156 96.0048 501.639 97.3534C501.399 97.5659 499.991 97.1049 499.932 96.8011C499.395 94.023 501.824 93.4063 503.546 92.4394C504.741 91.7673 506.031 91.2824 506.713 93.4947C507.653 96.5466 506.84 99.6091 504.463 99.404Z" fill="black"/>
<path d="M587.116 111.227C585.622 112.018 584.583 112.821 584.362 112.642C583.106 111.61 582.042 110.344 580.913 109.159C581.579 108.734 582.538 107.792 582.857 107.972C584.195 108.726 585.342 109.816 587.116 111.227Z" fill="black"/>
<path d="M578.537 113.978C577.645 111.916 576.958 110.634 576.595 109.268C576.509 108.943 577.5 108.335 577.996 107.856C578.847 109.073 579.818 110.233 580.457 111.551C580.599 111.844 579.584 112.693 578.537 113.978Z" fill="black"/>
<path d="M316.654 67.4414C318.521 64.0107 320.353 60.6773 322.154 57.3275C327.648 47.1148 335.495 39.4602 346.617 35.5072C349.016 34.6555 351.625 34.3022 354.172 34.0148C354.678 33.958 355.438 35.1943 355.897 35.9457C356.365 36.7106 356.422 37.7748 356.995 38.4064C357.587 39.0575 358.584 39.3479 359.404 39.7955C358.543 40.5633 357.807 41.6096 356.801 42.0496C353.451 43.5135 349.914 44.5702 346.614 46.1269C337.867 50.2551 330.176 55.7947 324.277 63.5407C322.906 65.3428 321.794 67.3411 320.392 69.1163C320.007 69.6027 318.824 69.9799 318.328 69.7434C317.682 69.4366 317.353 68.4682 316.654 67.4414Z" fill="black"/>
<path d="M388.346 94.2462C388.399 100.1 387.289 104.918 382.896 107.984C380.814 109.437 377.941 109.831 375.367 110.476C374.891 110.596 373.913 109.731 373.598 109.106C373.419 108.75 373.981 107.566 374.424 107.427C383.77 104.477 381.745 97.1036 381.18 90.3665C380.781 85.5992 378.576 81.5938 375.727 77.7709C372.792 73.8329 369.729 69.8199 367.786 65.3819C366.349 62.1024 366.499 58.0955 366.238 54.3939C366.189 53.7069 367.547 52.9226 368.257 52.1816C368.88 52.8597 370.049 53.5422 370.042 54.2128C369.951 62.538 374.985 68.2722 380.233 73.7161C386.056 79.7512 387.83 87.081 388.346 94.2462Z" fill="black"/>
<path d="M346.928 78.4714C345.402 77.5389 343.534 76.8923 342.434 75.6021C341.001 73.9197 340.079 74.3133 338.87 75.5437C335.674 78.7948 332.537 82.1072 329.233 85.246C328.489 85.9524 327.159 86.0513 326.099 86.4299C326.198 85.3807 325.972 84.1488 326.447 83.3091C330.619 75.9643 336.118 69.7122 344.017 66.3818C348.432 64.5198 353.425 63.963 358.201 63.0424C358.798 62.9272 360.036 64.0797 360.277 64.8565C360.436 65.3669 359.464 66.4581 358.755 66.9251C358.065 67.3802 357.069 67.3906 356.202 67.5613C353.621 68.0717 350.732 67.8532 353.095 72.2029C354.727 75.2114 351.639 77.9296 346.928 78.4714Z" fill="black"/>
<path d="M395.625 53.8131C398.091 56.2394 399.943 58.2002 398.029 60.8136C396.532 62.8582 391.214 62.5589 388.587 60.4708C387.323 59.4665 385.889 57.2707 384.99 57.4877C382.562 58.0715 380.37 59.6431 378.105 60.8585C377.237 61.324 376.478 62.0919 375.564 62.3374C374.971 62.496 373.946 62.1532 373.56 61.6788C373.193 61.2297 373.083 60.0577 373.417 59.6431C378.5 53.3102 390.976 46.6539 400.114 49.5741C400.945 49.8391 401.974 50.1654 402.42 50.8015C403.165 51.8687 403.515 53.2084 404.031 54.4327C402.743 54.5764 401.443 54.8863 400.167 54.8159C398.911 54.7456 397.677 54.2876 395.625 53.8131Z" fill="black"/>
<path d="M295.064 113.823C292.841 115.914 293.337 118.69 294.786 121.688C295.219 122.586 295.011 123.788 295.097 124.853C293.872 124.501 292.299 124.513 291.48 123.739C287.365 119.852 287.824 113.606 292.21 110.045C292.757 109.602 293.42 108.379 293.212 108.082C290.439 104.135 287.691 100.14 284.53 96.5062C283.582 95.4165 281.354 95.4659 279.762 94.8642C278.96 94.5619 277.793 94.0724 277.661 93.4797C277.521 92.8435 278.215 91.6431 278.874 91.2824C282.537 89.2736 287.48 90.7256 290.955 95.6306C294.326 100.387 297.09 105.604 299.719 110.819C300.46 112.29 299.787 114.463 299.761 116.313C298.285 115.531 296.807 114.748 295.064 113.823Z" fill="black"/>
<path d="M383.839 131.261C383.386 130.348 383.19 129.135 383.341 128.132C383.824 124.884 381.802 124.3 379.312 124.076C373.91 123.597 369.293 125.558 365.309 128.911C361.552 132.069 362.126 136.05 366.547 138.086C368.403 138.954 370.591 139.149 372.477 139.613C375.238 138.969 377.667 138.52 380.006 137.802C383.205 136.829 385.831 135.392 383.839 131.261ZM373.714 134.419C373.669 134.299 373.624 134.194 373.593 134.09C372.884 134.09 372.145 134.239 371.496 134.045C370.47 133.745 369.504 133.221 368.508 132.772C369.821 131.859 371.104 130.886 372.477 130.078C372.748 129.913 373.427 130.288 373.85 130.527C375.223 131.335 376.566 132.204 377.924 133.042C376.521 133.506 375.117 133.955 373.714 134.419Z" fill="black"/>
<path d="M371.57 150.472C370.128 149.348 369.015 148.481 367.902 147.614C369.074 146.969 370.179 146.098 371.433 145.721C374.835 144.699 378.282 143.801 381.754 143.045C382.781 142.822 383.951 143.236 385.055 143.359C384.45 144.362 384.076 145.907 383.199 146.275C379.519 147.824 375.688 149.023 371.57 150.472Z" fill="black"/>
<path d="M391.592 78.5477C390.96 77.9714 390.042 77.1347 389.126 76.298C390.13 75.7876 391.082 75.0781 392.147 74.8146C393.576 74.4629 395.103 74.2803 396.565 74.3701C397.349 74.418 398.088 75.1904 398.847 75.6349C398.335 76.2815 397.942 77.2948 397.288 77.5029C395.701 78.0088 393.991 78.1405 391.592 78.5477Z" fill="black"/>
<path d="M347.283 89.3815C345.988 88.5178 345.038 87.8832 344.085 87.247C345.511 86.5795 346.886 85.6499 348.384 85.3626C349.066 85.2323 349.996 86.3744 350.814 86.9387C349.732 87.6886 348.65 88.437 347.283 89.3815Z" fill="black"/>
<path d="M797.827 178.964C797.087 176.763 794.794 173.815 792.862 173.545C789.181 173.036 785.288 174.264 781.455 174.653C772.658 175.521 763.861 176.404 755.034 177.123C751.593 177.407 748.017 176.763 744.668 177.407C739.839 178.32 737.244 179.592 738.451 185.714C739.115 189.142 740.337 192.51 741.665 195.758C746.207 206.939 755.562 211.444 768.146 213.525C771.164 212.672 775.661 212.088 779.448 210.157C786.661 206.49 791.414 200.218 794.794 193.004C796.876 188.573 799.532 183.993 797.827 178.964ZM771.421 180.326C776.34 179.293 781.319 178.56 786.646 177.661C782.828 182.556 778.829 186.029 772.779 186.747C768.991 187.181 769.897 184.203 769.127 182.541C768.961 182.182 770.485 180.505 771.421 180.326ZM752.906 181.463C756.135 181.463 759.576 180.805 762.518 181.718C764.208 182.242 765.068 185.34 766.305 187.286C765.808 187.421 765.219 187.81 764.827 187.675C760.677 186.163 756.558 184.577 752.438 183.005C752.589 182.496 752.755 181.987 752.906 181.463ZM766.773 208.166C766.487 208.166 766.155 208.286 765.898 208.181C763.454 207.268 761.024 206.31 758.595 205.367C760.406 203.855 762.08 202.149 764.042 200.877C771.134 196.267 778.98 193.303 787.159 191.193C787.989 190.983 788.879 191.028 789.83 190.938C786.253 199.739 778.241 208.361 766.773 208.166Z" fill="black"/>
<path d="M790.564 140.545C787.734 141.054 785.798 141.563 783.838 141.696C782.594 141.78 781.313 141.305 780.05 141.081C780.932 140.193 781.781 139.273 782.709 138.436C783.058 138.122 783.77 138.125 783.999 137.778C784.441 137.105 784.728 136.306 784.953 135.523C785.291 134.348 785.52 133.142 785.795 131.949C786.632 132.673 787.43 133.452 788.321 134.107C789.288 134.82 790.341 135.417 791.357 136.065C791.494 135.309 791.423 134.41 791.824 133.838C792.257 133.223 793.365 132.376 793.784 132.552C800.516 135.389 807.323 138.11 813.788 141.47C815.952 142.594 817.435 145.302 818.783 147.549C819.38 148.544 818.866 150.195 818.857 151.548C817.66 150.969 816.038 150.699 815.345 149.756C812.743 146.212 809.587 143.518 805.464 141.897C804.199 141.4 803.894 141.612 802.849 142.727C800.419 145.318 797.478 147.679 794.298 149.228C792.843 149.936 789.786 149.113 788.431 147.906C786.54 146.224 787.891 143.889 789.243 142.052C789.457 141.758 789.723 141.499 790.564 140.545Z" fill="black"/>
<path d="M744.853 136.896C742.299 138.236 740.067 139.49 737.755 140.574C736.939 140.957 735.926 140.925 735.003 141.083C734.908 140.286 734.973 139.423 734.671 138.712C734.416 138.107 733.578 137.755 733.283 137.155C732.653 135.872 731.398 134.04 731.851 133.259C732.925 131.4 734.12 132.822 735.356 133.823C736.307 134.594 737.819 134.682 739.515 135.209C738.912 133.986 738.301 133.296 738.292 132.6C738.277 131.425 738.645 130.246 738.854 129.069C739.764 129.702 740.607 130.479 741.6 130.931C742.733 131.448 744.185 132.247 745.182 131.934C752.45 129.655 758.933 131.442 763.443 136.82C764.213 137.737 764.015 139.453 764.265 140.8C763.084 140.448 761.598 140.43 760.774 139.689C756.571 135.907 756.054 135.941 753.742 140.994C752.499 143.713 750.54 145.407 747.396 144.751C745.375 144.331 743.869 139.818 744.853 136.896Z" fill="black"/>
<path d="M775.409 130.844C774.935 137.721 773.5 143.596 767.567 147.309C765.355 148.694 762.713 149.384 760.357 150.568C758.331 151.586 756.277 152.662 754.516 154.06C751.738 156.265 751.688 158.574 753.982 161.343C754.613 162.105 755.422 162.792 755.805 163.663C756.095 164.322 756.134 165.447 755.741 165.941C755.372 166.407 754.208 166.616 753.54 166.429C747.72 164.804 745.004 155.591 749.603 151.791C753.163 148.848 757.552 146.736 761.842 144.858C767.502 142.379 770.797 138.571 771.04 132.355C771.063 131.783 770.977 131.16 771.179 130.653C771.664 129.433 772.29 128.268 772.859 127.083C773.707 128.336 774.558 129.59 775.409 130.844Z" fill="black"/>
<path d="M801.995 113.028C812.716 113.503 818.024 118.798 822.495 125.234C823.73 127.01 824.73 129.021 825.411 131.065C825.735 132.037 825.056 133.337 824.833 134.489C823.947 133.877 822.664 133.462 822.24 132.623C819.891 127.971 816.856 123.959 812.583 120.858C806.366 116.345 800.021 117.421 793.509 120.06C792.513 120.464 791.218 120.144 790.061 120.159C790.711 119.072 791.104 117.435 792.059 116.995C795.87 115.24 799.855 113.859 801.995 113.028Z" fill="black"/>
<path d="M774.532 116.076C774.103 116.725 773.851 117.538 773.347 117.744C772.858 117.945 772.009 117.68 771.493 117.351C762.857 111.825 755.448 112.371 746.869 119.117C745.1 120.508 743.199 121.766 741.228 122.855C740.543 123.233 739.464 122.913 738.566 122.911C738.72 122.043 738.56 120.871 739.073 120.352C744.69 114.66 750.761 109.475 759.157 108.692C764.55 108.189 769.605 109.591 773.353 113.922C773.847 114.495 774.1 115.27 774.532 116.076Z" fill="black"/>
<path d="M863.005 168.493C867.59 171.512 868.566 175.581 867.54 180.14C867.282 181.285 865.698 182.135 864.723 183.122C864.37 182.023 863.895 180.947 863.694 179.821C863.438 178.378 863.711 176.784 863.214 175.454C861.653 171.267 860.189 171.132 857.265 174.457C856.622 175.187 855.371 175.389 854.399 175.834C854.355 174.774 853.856 173.406 854.34 172.704C858.455 166.729 862.792 160.794 870.806 159.921C872.594 159.727 874.616 160.951 876.39 161.807C876.811 162.009 876.947 163.466 876.689 164.15C876.505 164.641 875.198 165.259 874.813 165.051C869.792 162.334 866.885 166.241 863.005 168.493Z" fill="black"/>
<path d="M860.215 183.27C859.672 187.458 858.139 190.013 855.439 189.951C852.646 189.887 850.031 187.842 849.98 185.454C849.91 182.255 852.569 179.374 855.868 179.989C857.659 180.321 859.122 182.396 860.215 183.27Z" fill="black"/>
<path d="M227.968 161.466C227.108 158.817 225.206 156.931 222.339 157.17C213.044 157.889 203.78 159.011 194.485 159.685C191.799 159.864 189.037 158.936 186.276 158.697C185.356 158.622 184.254 158.862 183.47 159.326C181.674 160.388 179.637 161.391 178.4 162.948C176.936 164.789 176.091 167.169 175.291 169.414C175.155 169.788 176.513 170.761 177.283 171.33C177.932 171.809 178.943 171.914 179.395 172.497C180.12 173.41 180.422 174.623 181.04 175.626C186.85 184.981 195.994 187.75 206.601 188.977C210.509 187.675 214.478 186.567 218.295 185.056C227.485 181.448 229.929 167.438 227.968 161.466ZM213.301 179.787C208.02 182.466 202.814 181.029 197.593 180.071C192.855 179.203 188.736 177.018 186.186 172.827C185.16 171.15 184.299 168.965 184.511 167.139C184.616 166.256 187.272 165.403 188.902 165.013C190.622 164.579 192.478 164.714 194.289 164.609C204.413 164.1 211.234 168.097 214.599 176.449C215.247 178.08 215.202 178.829 213.301 179.787Z" fill="black"/>
<path d="M170.885 121.707C166.483 127.81 162.691 133.166 158.767 138.424C158.053 139.381 156.802 139.942 155.799 140.686C155.434 139.454 154.385 137.863 154.818 137.047C157.279 132.419 160.182 128.026 162.753 123.452C164.264 120.765 165.392 117.87 166.779 115.112C167.363 113.952 168.169 112.902 168.875 111.802C169.518 112.976 170.206 114.13 170.781 115.335C170.98 115.754 170.902 116.303 170.977 117.077C174.171 113.411 175.05 109.304 175.129 104.881C175.145 104.073 175.792 103.276 176.148 102.474C176.818 103.261 178.03 104.028 178.06 104.839C178.164 107.548 177.956 110.287 177.636 112.989C177.498 114.143 176.551 114.993 178.748 115.305C179.75 115.447 180.464 117.465 181.342 118.605C183.1 120.891 185.042 123.055 186.6 125.465C187.887 127.454 188.416 130.074 186.27 131.593C184.731 132.684 182.253 133.224 180.37 132.924C176.844 132.362 174.446 129.861 172.934 126.644C172.388 125.48 171.943 124.268 170.885 121.707Z" fill="black"/>
<path d="M228.294 134.558C228.129 138.52 226.687 142.705 223.289 145.88C222.315 146.79 220.339 146.642 218.821 146.978C218.843 145.525 218.676 144.039 218.925 142.624C219.548 139.083 220.861 135.574 220.855 132.054C220.852 130.6 218.429 128.628 216.671 127.795C209.484 124.398 202.36 120.913 197.977 113.975C196.25 111.244 195.279 107.994 194.302 104.876C194.002 103.917 194.821 102.61 195.128 101.464C195.935 102.318 197.056 103.038 197.497 104.05C199.701 109.112 202.493 113.615 207.462 116.521C208.765 117.283 209.355 117.771 209.893 115.852C210.089 115.155 211.385 114.76 212.18 114.227C212.299 115.074 212.725 116.026 212.476 116.749C211.848 118.572 212.332 119.388 214.173 120.031C216.965 121.007 219.66 122.275 222.346 123.523C226.771 125.577 228.357 129.288 228.294 134.558Z" fill="black"/>
<path d="M169.647 92.0742C170.733 92.2104 171.906 92.1415 172.885 92.5397C173.932 92.9663 174.798 93.8314 175.743 94.5065C174.89 94.9585 174.044 95.4195 173.184 95.8565C173.015 95.9419 172.645 95.9029 172.628 95.9793C171.254 102.079 164.666 101.076 161.029 104.276C155.511 109.133 149.675 113.537 146.094 120.142C145.673 120.917 145.133 121.667 144.502 122.283C144.022 122.751 143.313 122.986 142.705 123.324C142.338 122.6 141.525 121.769 141.67 121.166C143.902 111.961 146.678 103.08 155.443 97.5525C162.487 93.1129 165.072 91.9978 169.647 92.0742Z" fill="black"/>
<path d="M124.269 166.525C123.668 166.525 122.982 166.709 122.488 166.482C121.779 166.155 121.212 165.528 120.583 165.03C121.114 164.427 121.527 163.521 122.193 163.268C126.147 161.767 130.101 162.021 133.638 164.314C137.061 166.533 140.316 169.032 143.479 171.607C144.23 172.219 144.319 173.629 144.713 174.671C143.723 174.862 142.718 174.999 141.75 175.265C141.146 175.431 140.256 175.66 140.085 176.091C139.516 177.534 139.35 179.137 138.757 180.568C138.376 181.489 137.517 182.216 136.873 183.03C136.052 182.095 134.612 181.204 134.539 180.213C134.388 178.221 134.551 175.98 135.368 174.196C136.553 171.616 135.421 170.55 133.402 169.634C130.48 168.309 127.537 167.028 124.604 165.727C124.495 165.994 124.382 166.259 124.269 166.525Z" fill="black"/>
<path d="M161.06 147.844C160.543 146.585 159.844 145.606 160.066 145.314C161.662 143.211 163.425 141.229 165.246 139.312C165.318 139.236 166.516 140.211 167.189 140.698C165.312 142.888 163.434 145.078 161.06 147.844Z" fill="black"/>
<path d="M173.878 141.027C172.986 142.524 172.464 143.401 171.942 144.278C171.16 143.283 169.84 142.332 169.752 141.28C169.666 140.261 170.849 139.138 171.476 138.061C172.204 138.962 172.933 139.861 173.878 141.027Z" fill="black"/>
<path d="M217.838 111.595C219.061 113.434 220.006 114.752 220.776 116.164C220.85 116.298 219.437 117.445 219.389 117.399C218.304 116.403 217.187 115.388 216.395 114.173C216.198 113.871 217.103 112.86 217.838 111.595Z" fill="black"/>
<path d="M179.262 249.675C170.376 250.717 162.752 247.197 155.364 242.82C152.812 241.308 150.066 240.09 147.652 238.394C146.386 237.505 145.65 235.876 144.675 234.582C146.214 234.626 147.937 234.239 149.256 234.796C153.908 236.758 158.469 238.951 162.975 241.23C169.57 244.567 176.676 245.041 183.864 245.276C185.834 245.341 188.874 244.58 189.016 247.316C189.168 250.247 186.107 249.544 184.127 249.657C182.532 249.749 180.927 249.675 179.262 249.675Z" fill="black"/>
<path d="M187.473 243.265C186.61 243.265 186.372 243.335 186.213 243.254C185.026 242.637 183.855 241.992 182.679 241.355C183.942 240.778 185.155 239.907 186.479 239.689C188.827 239.301 191.245 239.162 193.625 239.232C194.465 239.258 195.279 240.198 196.104 240.721C195.268 241.399 194.515 242.488 193.58 242.675C191.371 243.118 189.074 243.131 187.473 243.265Z" fill="black"/>
<path d="M312.34 318.31C315.607 318.112 316.866 319.41 316.931 321.845C317.003 324.613 314.964 326.554 311.966 326.47C309.377 326.397 307.66 324.958 307.519 322.365C307.39 319.986 309.923 318.278 312.34 318.31Z" fill="black"/>
</svg>
